<?xml version="1.0" encoding="utf-8"?>
<!-- Generator: Adobe Illustrator 16.0.0, SVG Export Plug-In . SVG Version: 6.00 Build 0)  -->
<!DOCTYPE svg PUBLIC "-//W3C//DTD SVG 1.1//EN" "http://www.w3.org/Graphics/SVG/1.1/DTD/svg11.dtd">
<svg version="1.1" xmlns="http://www.w3.org/2000/svg" xmlns:xlink="http://www.w3.org/1999/xlink" x="0px" y="0px" width="300px"
	 height="300px" viewBox="0 0 300 300" enable-background="new 0 0 300 300" xml:space="preserve">
<g id="Layer_1">
	<rect fill="#A0A0A0" width="300" height="300"/>
</g>
<g id="Layer_2">
	<g>
		<path fill="#FF0000" d="M150,10.719c-52.744,0-96.759,37.361-107.021,87.065C63.004,75.058,92.329,60.719,125,60.719
			c8.602,0,16.971,0.994,25,2.873c8.029-1.879,16.398-2.873,25-2.873c32.671,0,61.996,14.34,82.021,37.065
			C246.76,48.08,202.743,10.719,150,10.719"/>
		<path fill="#00FF00" d="M257.021,97.784c1.48,7.172,2.26,14.605,2.26,22.216c0,27.683-10.291,52.96-27.26,72.216
			c-8.589,41.599-40.819,74.55-82.021,84.192c8.029,1.879,16.398,2.873,25,2.873c60.354,0,109.281-48.927,109.281-109.281
			C284.281,142.316,273.99,117.041,257.021,97.784"/>
		<path fill="#FFFF00" d="M175,60.719c-8.602,0-16.971,0.994-25,2.873c48.307,11.305,84.281,54.655,84.281,106.408
			c0,7.61-0.779,15.044-2.26,22.216c16.969-19.256,27.26-44.533,27.26-72.216c0-7.611-0.779-15.043-2.26-22.216
			C236.996,75.059,207.671,60.719,175,60.719"/>
		<path fill="#0000FF" d="M42.979,97.784C26.011,117.04,15.719,142.316,15.719,170c0,60.354,48.927,109.281,109.281,109.281
			c8.602,0,16.971-0.994,25-2.873c-41.203-9.643-73.433-42.594-82.021-84.192C51.011,172.96,40.719,147.683,40.719,120
			C40.719,112.389,41.498,104.956,42.979,97.784"/>
		<path fill="#FF00FF" d="M125,60.719c-32.671,0-61.996,14.339-82.021,37.065c-1.481,7.172-2.26,14.605-2.26,22.216
			c0,27.683,10.292,52.96,27.26,72.216c-1.481-7.172-2.26-14.605-2.26-22.216c0-51.753,35.975-95.103,84.281-106.408
			C141.972,61.712,133.602,60.719,125,60.719"/>
		<path fill="#00FFFF" d="M232.021,192.216c-20.025,22.726-49.351,37.065-82.021,37.065c-32.671,0-61.996-14.34-82.021-37.065
			c8.588,41.599,40.818,74.55,82.021,84.192C191.202,266.766,223.433,233.814,232.021,192.216"/>
		<path fill="#FFFFFF" d="M150,63.592C101.694,74.897,65.719,118.247,65.719,170c0,7.61,0.779,15.044,2.26,22.216
			c20.025,22.726,49.351,37.065,82.021,37.065c32.67,0,61.996-14.34,82.021-37.065c1.48-7.172,2.26-14.605,2.26-22.216
			C234.281,118.247,198.307,74.897,150,63.592"/>
	</g>
</g>
</svg>
