<?xml version="1.0" encoding="utf-8"?>
<!-- Generator: Adobe Illustrator 16.0.0, SVG Export Plug-In . SVG Version: 6.00 Build 0)  -->
<!DOCTYPE svg PUBLIC "-//W3C//DTD SVG 1.1//EN" "http://www.w3.org/Graphics/SVG/1.1/DTD/svg11.dtd">
<svg version="1.1" id="Layer_1" xmlns="http://www.w3.org/2000/svg" xmlns:xlink="http://www.w3.org/1999/xlink" x="0px" y="0px"
	 width="100px" height="100px" viewBox="0 0 100 100" enable-background="new 0 0 100 100" xml:space="preserve">
<g>
	<circle fill="#FFEE71" cx="50" cy="50" r="26.667"/>
	<circle fill="none" cx="50" cy="50" r="26.667"/>
</g>
<path fill="#4A58A0" d="M45.906,14.5c-29.656,0-42.281,13-42.281,39.125c0,21.465,16.25,53.625,50.375,53.625
	c23.271,0,22.627,4-0.125,4C22.75,111.25,0,84.875,0,53.375C0,21.064,19.75,14.5,45.906,14.5z"/>
<path fill="#4A58A0" d="M82.729,64.354C97.672,38.738,92.805,21.283,70.24,8.118C51.7-2.698,15.733-4.869-1.464,24.607
	c-11.726,20.1-14.856,17.528-3.391-2.124c15.684-26.884,49.93-33.244,77.138-17.37C100.189,21.394,95.908,41.761,82.729,64.354z"/>
<path fill="#4A58A0" d="M20.97,70.842c14.422,25.913,31.92,30.623,54.749,17.918c18.756-10.438,38.955-40.275,22.361-70.094
	c-11.316-20.333-7.51-21.716,3.557-1.835c15.135,27.197,3.15,59.901-24.373,75.219C49.03,107.762,33.689,93.697,20.97,70.842z"/>
</svg>
