<?xml version="1.0" encoding="utf-8"?>
<!-- Generator: Adobe Illustrator 16.0.0, SVG Export Plug-In . SVG Version: 6.00 Build 0)  -->
<!DOCTYPE svg PUBLIC "-//W3C//DTD SVG 1.1//EN" "http://www.w3.org/Graphics/SVG/1.1/DTD/svg11.dtd">
<svg version="1.1" id="Layer_1" xmlns="http://www.w3.org/2000/svg" xmlns:xlink="http://www.w3.org/1999/xlink" x="0px" y="0px"
	 width="100px" height="100px" viewBox="0 0 100 100" enable-background="new 0 0 100 100" xml:space="preserve">
<g>
	<circle fill="#FFEE71" cx="50" cy="50" r="26.667"/>
	<circle fill="none" cx="50" cy="50" r="26.667"/>
</g>
<path fill="#4A58A0" d="M58.549,15.265C35.03,7.125,16.327,14.572,7.565,37.529c-7.653,20.053-2.217,54.438,26.284,65.315
	c21.741,8.299,18.646,15.928-2.609,7.813C4.768,100.553-9.603,65.941,2.106,35.263C14.007,4.082,39.907,8.049,58.549,15.265z"/>
<path fill="#4A58A0" d="M75.533,75.055c18.986-16.091,22.109-35.979,6.82-55.215C68.997,3.037,36.641-9.805,12.759,9.178
	c-18.218,14.479-23.205,7.93-5.394-6.228C29.546-14.68,66.65-9.41,87.082,16.297C107.85,42.424,91.24,62.688,75.533,75.055z"/>
<path fill="#4A58A0" d="M15.537,59.584c4.44,24.488,20.103,37.137,44.406,33.514c21.229-3.164,48.529-24.766,44.031-54.938
	c-3.433-23.017,4.733-24.061,8.09-1.557c4.178,28.023-18.939,57.522-51.418,62.363C27.636,103.887,18.392,79.37,15.537,59.584z"/>
</svg>
