<?xml version="1.0" encoding="utf-8"?>
<!-- Generator: Adobe Illustrator 16.0.0, SVG Export Plug-In . SVG Version: 6.00 Build 0)  -->
<!DOCTYPE svg PUBLIC "-//W3C//DTD SVG 1.1//EN" "http://www.w3.org/Graphics/SVG/1.1/DTD/svg11.dtd">
<svg version="1.1" id="Layer_1" xmlns="http://www.w3.org/2000/svg" xmlns:xlink="http://www.w3.org/1999/xlink" x="0px" y="0px"
	 width="100px" height="100px" viewBox="0 0 100 100" enable-background="new 0 0 100 100" xml:space="preserve">
<circle fill="#FFFFFF" cx="50" cy="50" r="38.519"/>
<g>
	<circle fill="#FFEE71" cx="50" cy="50" r="26.667"/>
	<circle fill="none" cx="50" cy="50" r="26.667"/>
</g>
<path fill="#4A58A0" d="M71.889,21.659C56.628,8.493,34.528,6.455,18.187,22.666C2.948,37.781-4.1,70.734,14.836,89.824
	c16.389,16.521,7.754,25.511-8.269,9.357c-17.99-18.139-18.349-58.328,5.913-82.395C36.932-7.466,62.287,11.713,71.889,21.659z"/>
<path fill="#4A58A0" d="M63.598,83.127c19.032-6.632,31.848-24.752,25.979-47.01C84.105,15.362,59.09-7.219,33.091-0.363
	C10.59,5.57,7.122-6.404,29.122-12.204c24.7-6.512,59.685,13.272,68.396,46.316C106.299,67.416,77.012,79.785,63.598,83.127z"/>
<path fill="#4A58A0" d="M14.511,45.214c-3.772,19.798,5.512,39.957,27.721,46.005c20.709,5.639,52.772-4.734,59.836-30.68
	c6.113-22.453,18.216-19.471,12.238,2.482c-6.709,24.646-41.336,45.053-74.312,36.074C6.765,90.049,10.697,58.501,14.511,45.214z"/>
</svg>
