<?xml version="1.0" encoding="utf-8"?>
<!-- Generator: Adobe Illustrator 16.0.0, SVG Export Plug-In . SVG Version: 6.00 Build 0)  -->
<!DOCTYPE svg PUBLIC "-//W3C//DTD SVG 1.1//EN" "http://www.w3.org/Graphics/SVG/1.1/DTD/svg11.dtd">
<svg version="1.1" id="Layer_1" xmlns="http://www.w3.org/2000/svg" xmlns:xlink="http://www.w3.org/1999/xlink" x="0px" y="0px"
	 width="100px" height="100px" viewBox="0 0 100 100" enable-background="new 0 0 100 100" xml:space="preserve">
<g>
	<circle fill="#FFEE71" cx="50" cy="50" r="26.667"/>
	<circle fill="none" cx="50" cy="50" r="26.667"/>
</g>
<path fill="#4A58A0" d="M83.398,37.342C77.71,22.936,58.93,7.519,38.003,12.292C17.075,17.064-4.162,41.934,1.013,64.62
	c5.174,22.688-10.927,27.153-15.986,4.971c-5.06-22.183,16.03-59.612,50.652-67.51C70.299-5.814,81.971,29.815,83.398,37.342z"/>
<path fill="#4A58A0" d="M44.271,85.43c14.941,4.633,38.07-6.234,44.422-26.736c6.354-20.5-4.525-51.337-26.752-58.229
	c-22.229-6.889-18.025-23.061,3.707-16.326c21.73,6.736,43.561,43.741,33.047,77.66C88.184,95.715,44.271,85.43,44.271,85.43z"/>
<path fill="#4A58A0" d="M22.032,27.381c-11.5,10.604-13.699,36.063,0.852,51.842c14.55,15.781,46.687,21.836,63.794,6.059
	c17.108-15.77,28.991-4.023,12.266,11.396c-16.729,15.424-59.688,15.748-83.758-10.359C-8.888,60.214,22.032,27.381,22.032,27.381z"
	/>
</svg>
