<?xml version="1.0" encoding="utf-8"?>
<!-- Generator: Adobe Illustrator 16.0.0, SVG Export Plug-In . SVG Version: 6.00 Build 0)  -->
<!DOCTYPE svg PUBLIC "-//W3C//DTD SVG 1.1//EN" "http://www.w3.org/Graphics/SVG/1.1/DTD/svg11.dtd">
<svg version="1.1" id="Layer_2_1_" xmlns="http://www.w3.org/2000/svg" xmlns:xlink="http://www.w3.org/1999/xlink" x="0px" y="0px"
	 width="100px" height="100px" viewBox="0 0 100 100" enable-background="new 0 0 100 100" xml:space="preserve">
<line fill="none" stroke="#3D6FC1" stroke-width="2" stroke-miterlimit="10" x1="-2.375" y1="-2.375" x2="102.375" y2="102.375"/>
<line fill="none" stroke="#3D6FC1" stroke-width="2" stroke-miterlimit="10" x1="-13.489" y1="11.851" x2="113.49" y2="88.148"/>
<line fill="none" stroke="#3D6FC1" stroke-width="2" stroke-miterlimit="10" x1="-17.665" y1="19.872" x2="117.666" y2="80.126"/>
<line fill="none" stroke="#3D6FC1" stroke-width="2" stroke-miterlimit="10" x1="-22.943" y1="37.136" x2="122.944" y2="62.86"/>
<line fill="none" stroke="#3D6FC1" stroke-width="2" stroke-miterlimit="10" x1="-1.454" y1="103.275" x2="101.452" y2="-3.286"/>
<line fill="none" stroke="#3D6FC1" stroke-width="2" stroke-miterlimit="10" x1="12.963" y1="114.141" x2="87.032" y2="-14.151"/>
<line fill="none" stroke="#3D6FC1" stroke-width="2" stroke-miterlimit="10" x1="47.41" y1="124.02" x2="52.58" y2="-24.029"/>
<line fill="none" stroke="#3D6FC1" stroke-width="2" stroke-miterlimit="10" x1="121.863" y1="32.078" x2="-21.875" y2="67.918"/>
<line fill="none" stroke="#3D6FC1" stroke-width="2" stroke-miterlimit="10" x1="80.121" y1="-17.669" x2="19.869" y2="117.664"/>
<line fill="none" stroke="#3D6FC1" stroke-width="2" stroke-miterlimit="10" x1="15.22" y1="-15.403" x2="84.768" y2="115.396"/>
<line fill="none" stroke="#3D6FC1" stroke-width="2" stroke-miterlimit="10" x1="-9.93" y1="6.46" x2="109.918" y2="93.534"/>
<line fill="none" stroke="#3D6FC1" stroke-width="2" stroke-miterlimit="10" x1="-22.951" y1="37.135" x2="122.938" y2="62.859"/>
<line fill="none" stroke="#3D6FC1" stroke-width="2" stroke-miterlimit="10" x1="10.745" y1="-12.814" x2="89.244" y2="112.811"/>
<line fill="none" stroke="#3D6FC1" stroke-width="2" stroke-miterlimit="10" x1="-12.818" y1="10.748" x2="112.807" y2="89.247"/>
<line fill="none" stroke="#3D6FC1" stroke-width="2" stroke-miterlimit="10" x1="-1.458" y1="103.276" x2="101.447" y2="-3.283"/>
<line fill="none" stroke="#3D6FC1" stroke-width="2" stroke-miterlimit="10" x1="60.303" y1="123.344" x2="39.686" y2="-23.351"/>
<line fill="none" stroke="#3D6FC1" stroke-width="2" stroke-miterlimit="10" x1="123.881" y1="55.164" x2="-23.894" y2="44.83"/>
<line fill="none" stroke="#3D6FC1" stroke-width="2" stroke-miterlimit="10" x1="118.668" y1="22.251" x2="-18.681" y2="77.743"/>
<line fill="none" stroke="#3D6FC1" stroke-width="2" stroke-miterlimit="10" x1="70.41" y1="-21.201" x2="29.578" y2="121.195"/>
<line fill="none" stroke="#3D6FC1" stroke-width="2" stroke-miterlimit="10" x1="2.384" y1="106.737" x2="97.602" y2="-6.741"/>
<line fill="none" stroke="#3D6FC1" stroke-width="2" stroke-miterlimit="10" x1="95.596" y1="108.363" x2="4.392" y2="-8.366"/>
<line fill="none" stroke="#3D6FC1" stroke-width="2" stroke-miterlimit="10" x1="-17.672" y1="19.873" x2="117.658" y2="80.121"/>
<line fill="none" stroke="#3D6FC1" stroke-width="2" stroke-miterlimit="10" x1="27.105" y1="-20.444" x2="72.885" y2="120.438"/>
<line fill="none" stroke="#3D6FC1" stroke-width="2" stroke-miterlimit="10" x1="-1.458" y1="-3.281" x2="101.447" y2="103.275"/>
<line fill="none" stroke="#3D6FC1" stroke-width="2" stroke-miterlimit="10" x1="103.275" y1="101.447" x2="-3.288" y2="-1.454"/>
<line fill="none" stroke="#3D6FC1" stroke-width="2" stroke-miterlimit="10" x1="113.483" y1="88.146" x2="-13.497" y2="11.85"/>
<line fill="none" stroke="#3D6FC1" stroke-width="2" stroke-miterlimit="10" x1="-24.068" y1="51.293" x2="124.049" y2="48.704"/>
<line fill="none" stroke="#3D6FC1" stroke-width="2" stroke-miterlimit="10" x1="118.177" y1="78.938" x2="-18.188" y2="21.06"/>
</svg>
