<?xml version="1.0" encoding="utf-8"?>
<!-- Generator: Adobe Illustrator 16.0.0, SVG Export Plug-In . SVG Version: 6.00 Build 0)  -->
<!DOCTYPE svg PUBLIC "-//W3C//DTD SVG 1.1//EN" "http://www.w3.org/Graphics/SVG/1.1/DTD/svg11.dtd">
<svg version="1.1" id="Layer_1" xmlns="http://www.w3.org/2000/svg" xmlns:xlink="http://www.w3.org/1999/xlink" x="0px" y="0px"
	 width="100px" height="100px" viewBox="0 0 100 100" enable-background="new 0 0 100 100" xml:space="preserve">
<path fill="#FFFFFF" d="M96.607,50c0,25.74-20.867,46.607-46.607,46.607C24.257,96.607,3.392,75.74,3.392,50
	C3.392,24.257,24.257,3.392,50,3.392C75.74,3.392,96.607,24.257,96.607,50z"/>
<g>
	<circle fill="#FFEE71" cx="50" cy="50" r="26.667"/>
	<circle fill="none" cx="50" cy="50" r="26.667"/>
</g>
<path fill="#4A58A0" d="M84.673,51.23C88.039,31.2,70.034,12.499,47.95,12.609C24.68,12.726,4.105,29.785,2.242,55.164
	C0.378,80.542-27.623,78.52-25.799,53.707C-23.98,28.893,6.109-4.477,44.838-1.632C83.563,1.21,88.982,42.221,84.673,51.23z"/>
<path fill="#4A58A0" d="M34.139,19.144C15.016,25.991,7.492,50.835,18.375,70.053c11.468,20.25,36.4,29.869,59.458,19.098
	c23.056-10.769,34.968,14.652,12.426,25.185s-66.356,0.577-82.79-34.604C-8.969,44.545,24.17,19.783,34.139,19.144z"/>
<path fill="#4A58A0" d="M31.402,79.29c15.578,13.032,40.815,6.96,51.891-12.147C94.961,47.007,90.65,20.633,69.698,6.19
	C48.747-8.253,64.652-31.387,85.137-17.265c20.486,14.119,34.057,56.953,12.016,88.925C75.116,103.63,36.996,87.564,31.402,79.29z"
	/>
<g id="Layer_1_1_">
</g>
</svg>
