<?xml version="1.0" encoding="utf-8"?>
<!-- Generator: Adobe Illustrator 16.0.0, SVG Export Plug-In . SVG Version: 6.00 Build 0)  -->
<!DOCTYPE svg PUBLIC "-//W3C//DTD SVG 1.1//EN" "http://www.w3.org/Graphics/SVG/1.1/DTD/svg11.dtd">
<svg version="1.1" id="Layer_2_1_" xmlns="http://www.w3.org/2000/svg" xmlns:xlink="http://www.w3.org/1999/xlink" x="0px" y="0px"
	 width="100px" height="100px" viewBox="0 0 100 100" enable-background="new 0 0 100 100" xml:space="preserve">
<line fill="none" stroke="#3D6FC1" stroke-width="2" stroke-miterlimit="10" x1="-6.105" y1="1.641" x2="106.105" y2="98.357"/>
<line fill="none" stroke="#3D6FC1" stroke-width="2" stroke-miterlimit="10" x1="-11.58" y1="8.839" x2="111.58" y2="91.159"/>
<line fill="none" stroke="#3D6FC1" stroke-width="2" stroke-miterlimit="10" x1="-16.136" y1="16.65" x2="116.138" y2="83.348"/>
<line fill="none" stroke="#3D6FC1" stroke-width="2" stroke-miterlimit="10" x1="-19.708" y1="24.958" x2="119.709" y2="75.038"/>
<line fill="none" stroke="#3D6FC1" stroke-width="2" stroke-miterlimit="10" x1="-23.694" y1="42.565" x2="123.695" y2="57.429"/>
<line fill="none" stroke="#3D6FC1" stroke-width="2" stroke-miterlimit="10" x1="-18.557" y1="78.031" x2="118.558" y2="21.959"/>
<line fill="none" stroke="#3D6FC1" stroke-width="2" stroke-miterlimit="10" x1="2.627" y1="106.935" x2="97.371" y2="-6.946"/>
<line fill="none" stroke="#3D6FC1" stroke-width="2" stroke-miterlimit="10" x1="17.809" y1="116.703" x2="82.187" y2="-16.715"/>
<line fill="none" stroke="#3D6FC1" stroke-width="2" stroke-miterlimit="10" x1="52.892" y1="124.008" x2="47.098" y2="-24.018"/>
<line fill="none" stroke="#3D6FC1" stroke-width="2" stroke-miterlimit="10" x1="61.89" y1="123.104" x2="38.1" y2="-23.113"/>
<line fill="none" stroke="#3D6FC1" stroke-width="2" stroke-miterlimit="10" x1="123.386" y1="59.996" x2="-23.398" y2="40"/>
<line fill="none" stroke="#3D6FC1" stroke-width="2" stroke-miterlimit="10" x1="120.342" y1="26.812" x2="-20.353" y2="73.184"/>
<line fill="none" stroke="#3D6FC1" stroke-width="2" stroke-miterlimit="10" x1="75.034" y1="-19.712" x2="24.957" y2="119.706"/>
<line fill="none" stroke="#3D6FC1" stroke-width="2" stroke-miterlimit="10" x1="10.479" y1="-12.652" x2="89.51" y2="112.646"/>
<line fill="none" stroke="#3D6FC1" stroke-width="2" stroke-miterlimit="10" x1="-12.986" y1="11.011" x2="112.974" y2="88.982"/>
<line fill="none" stroke="#3D6FC1" stroke-width="2" stroke-miterlimit="10" x1="-23.703" y1="42.564" x2="123.689" y2="57.429"/>
<line fill="none" stroke="#3D6FC1" stroke-width="2" stroke-miterlimit="10" x1="42.219" y1="123.656" x2="57.771" y2="-23.662"/>
<line fill="none" stroke="#3D6FC1" stroke-width="2" stroke-miterlimit="10" x1="6.208" y1="-9.739" x2="93.782" y2="109.735"/>
<line fill="none" stroke="#3D6FC1" stroke-width="2" stroke-miterlimit="10" x1="-15.548" y1="15.501" x2="115.538" y2="84.494"/>
<line fill="none" stroke="#3D6FC1" stroke-width="2" stroke-miterlimit="10" x1="-24.038" y1="47.724" x2="124.027" y2="52.27"/>
<line fill="none" stroke="#3D6FC1" stroke-width="2" stroke-miterlimit="10" x1="-3.036" y1="101.705" x2="103.025" y2="-1.714"/>
<line fill="none" stroke="#3D6FC1" stroke-width="2" stroke-miterlimit="10" x1="65.699" y1="122.38" x2="34.29" y2="-22.388"/>
<line fill="none" stroke="#3D6FC1" stroke-width="2" stroke-miterlimit="10" x1="124.061" y1="49.685" x2="-24.074" y2="50.309"/>
<line fill="none" stroke="#3D6FC1" stroke-width="2" stroke-miterlimit="10" x1="113.729" y1="12.262" x2="-13.742" y2="87.73"/>
<line fill="none" stroke="#3D6FC1" stroke-width="2" stroke-miterlimit="10" x1="109.473" y1="5.858" x2="-9.486" y2="94.136"/>
<line fill="none" stroke="#3D6FC1" stroke-width="2" stroke-miterlimit="10" x1="65.089" y1="-22.517" x2="34.9" y2="122.51"/>
<line fill="none" stroke="#3D6FC1" stroke-width="2" stroke-miterlimit="10" x1="2.146" y1="-6.541" x2="97.842" y2="106.535"/>
<line fill="none" stroke="#3D6FC1" stroke-width="2" stroke-miterlimit="10" x1="6.71" y1="110.102" x2="93.275" y2="-10.107"/>
<line fill="none" stroke="#3D6FC1" stroke-width="2" stroke-miterlimit="10" x1="99.788" y1="104.83" x2="0.201" y2="-4.834"/>
<line fill="none" stroke="#3D6FC1" stroke-width="2" stroke-miterlimit="10" x1="-19.714" y1="24.96" x2="119.701" y2="75.034"/>
<line fill="none" stroke="#3D6FC1" stroke-width="2" stroke-miterlimit="10" x1="11.01" y1="112.978" x2="88.977" y2="-12.981"/>
<line fill="none" stroke="#3D6FC1" stroke-width="2" stroke-miterlimit="10" x1="86.756" y1="-14.303" x2="13.234" y2="114.299"/>
<line fill="none" stroke="#3D6FC1" stroke-width="2" stroke-miterlimit="10" x1="21.958" y1="-18.559" x2="78.032" y2="118.552"/>
<line fill="none" stroke="#3D6FC1" stroke-width="2" stroke-miterlimit="10" x1="-5.257" y1="0.67" x2="105.247" y2="99.324"/>
<line fill="none" stroke="#3D6FC1" stroke-width="2" stroke-miterlimit="10" x1="-21.29" y1="29.883" x2="121.278" y2="70.111"/>
<line fill="none" stroke="#3D6FC1" stroke-width="2" stroke-miterlimit="10" x1="80.406" y1="117.533" x2="19.582" y2="-17.54"/>
<line fill="none" stroke="#3D6FC1" stroke-width="2" stroke-miterlimit="10" x1="106.935" y1="97.365" x2="-6.947" y2="2.627"/>
<line fill="none" stroke="#3D6FC1" stroke-width="2" stroke-miterlimit="10" x1="122.377" y1="34.291" x2="-22.39" y2="65.703"/>
<line fill="none" stroke="#3D6FC1" stroke-width="2" stroke-miterlimit="10" x1="49.68" y1="-24.07" x2="50.308" y2="124.064"/>
<line fill="none" stroke="#3D6FC1" stroke-width="2" stroke-miterlimit="10" x1="17.243" y1="-16.436" x2="82.745" y2="116.432"/>
<line fill="none" stroke="#3D6FC1" stroke-width="2" stroke-miterlimit="10" x1="116.13" y1="83.347" x2="-16.145" y2="16.65"/>
<line fill="none" stroke="#3D6FC1" stroke-width="2" stroke-miterlimit="10" x1="66.349" y1="-22.244" x2="33.635" y2="122.238"/>
<line fill="none" stroke="#3D6FC1" stroke-width="2" stroke-miterlimit="10" x1="33.024" y1="-22.102" x2="66.959" y2="122.097"/>
<line fill="none" stroke="#3D6FC1" stroke-width="2" stroke-miterlimit="10" x1="118.299" y1="78.648" x2="-18.309" y2="21.345"/>
<line fill="none" stroke="#3D6FC1" stroke-width="2" stroke-miterlimit="10" x1="28.035" y1="-20.745" x2="71.946" y2="120.737"/>
<line fill="none" stroke="#3D6FC1" stroke-width="2" stroke-miterlimit="10" x1="-23.769" y1="56.767" x2="123.751" y2="43.23"/>
<line fill="none" stroke="#3D6FC1" stroke-width="2" stroke-miterlimit="10" x1="120.132" y1="73.815" x2="-20.141" y2="26.182"/>
</svg>
