<?xml version="1.0" encoding="utf-8"?>
<!-- Generator: Adobe Illustrator 16.0.0, SVG Export Plug-In . SVG Version: 6.00 Build 0)  -->
<!DOCTYPE svg PUBLIC "-//W3C//DTD SVG 1.1//EN" "http://www.w3.org/Graphics/SVG/1.1/DTD/svg11.dtd">
<svg version="1.1" id="Layer_1" xmlns="http://www.w3.org/2000/svg" xmlns:xlink="http://www.w3.org/1999/xlink" x="0px" y="0px"
	 width="100px" height="100px" viewBox="0 0 100 100" enable-background="new 0 0 100 100" xml:space="preserve">
<path fill="#FFFFFF" d="M101.268,50c0,28.314-22.953,51.268-51.268,51.268C21.683,101.268-1.269,78.314-1.269,50
	C-1.269,21.683,21.683-1.269,50-1.269C78.314-1.269,101.268,21.683,101.268,50z"/>
<g>
	<circle fill="#FFEE71" cx="50" cy="50" r="26.667"/>
	<circle fill="none" cx="50" cy="50" r="26.667"/>
</g>
<path fill="#4A58A0" d="M77.896,63.391C88.439,40.681,72,19.652,49.284,16.712C24.184,13.467,7.566,27.25-0.014,53.826
	C-7.591,80.404-45.202,68.52-37.791,42.535c7.408-25.987,43.482-56.616,84.039-45.051C86.805,9.047,90.324,47.755,77.896,63.391z"/>
<path fill="#4A58A0" d="M24.434,67.432c14.369,20.506,40.804,16.816,54.731-1.371c15.388-20.095,11.787-41.376-7.413-61.254
	c-19.202-19.877,9.93-46.471,28.703-27.035c18.775,19.432,27.203,66-3.129,95.299C66.995,102.371,31.736,86.021,24.434,67.432z"/>
<path fill="#4A58A0" d="M47.697,19.144c-24.942,2.184-34.975,26.918-26.195,48.077c9.704,23.375,29.936,30.906,56.751,24.229
	c26.815-6.687,35.269,31.843,9.052,38.377c-26.223,6.534-70.76-9.466-80.957-50.388C-3.848,38.518,27.948,16.167,47.697,19.144z"/>
</svg>
