<?xml version="1.0" encoding="utf-8"?>
<!-- Generator: Adobe Illustrator 16.0.0, SVG Export Plug-In . SVG Version: 6.00 Build 0)  -->
<!DOCTYPE svg PUBLIC "-//W3C//DTD SVG 1.1//EN" "http://www.w3.org/Graphics/SVG/1.1/DTD/svg11.dtd">
<svg version="1.1" id="Layer_2_1_" xmlns="http://www.w3.org/2000/svg" xmlns:xlink="http://www.w3.org/1999/xlink" x="0px" y="0px"
	 width="100px" height="100px" viewBox="0 0 100 100" enable-background="new 0 0 100 100" xml:space="preserve">
<line fill="none" stroke="#3D6FC1" stroke-width="2" stroke-miterlimit="10" x1="-6.049" y1="1.577" x2="106.05" y2="98.422"/>
<line fill="none" stroke="#3D6FC1" stroke-width="2" stroke-miterlimit="10" x1="-11.532" y1="8.768" x2="111.532" y2="91.23"/>
<line fill="none" stroke="#3D6FC1" stroke-width="2" stroke-miterlimit="10" x1="-16.098" y1="16.574" x2="116.1" y2="83.424"/>
<line fill="none" stroke="#3D6FC1" stroke-width="2" stroke-miterlimit="10" x1="-19.679" y1="24.878" x2="119.68" y2="75.119"/>
<line fill="none" stroke="#3D6FC1" stroke-width="2" stroke-miterlimit="10" x1="-23.686" y1="42.48" x2="123.687" y2="57.514"/>
<line fill="none" stroke="#3D6FC1" stroke-width="2" stroke-miterlimit="10" x1="-24.054" y1="51.517" x2="124.055" y2="48.478"/>
<line fill="none" stroke="#3D6FC1" stroke-width="2" stroke-miterlimit="10" x1="-18.589" y1="77.952" x2="118.59" y2="22.039"/>
<line fill="none" stroke="#3D6FC1" stroke-width="2" stroke-miterlimit="10" x1="-9.79" y1="93.715" x2="109.79" y2="6.275"/>
<line fill="none" stroke="#3D6FC1" stroke-width="2" stroke-miterlimit="10" x1="2.562" y1="106.88" x2="97.437" y2="-6.891"/>
<line fill="none" stroke="#3D6FC1" stroke-width="2" stroke-miterlimit="10" x1="17.731" y1="116.667" x2="82.264" y2="-16.677"/>
<line fill="none" stroke="#3D6FC1" stroke-width="2" stroke-miterlimit="10" x1="43.765" y1="123.802" x2="56.225" y2="-23.812"/>
<line fill="none" stroke="#3D6FC1" stroke-width="2" stroke-miterlimit="10" x1="52.807" y1="124.012" x2="47.184" y2="-24.021"/>
<line fill="none" stroke="#3D6FC1" stroke-width="2" stroke-miterlimit="10" x1="61.806" y1="123.117" x2="38.184" y2="-23.126"/>
<line fill="none" stroke="#3D6FC1" stroke-width="2" stroke-miterlimit="10" x1="70.629" y1="121.134" x2="29.36" y2="-21.142"/>
<line fill="none" stroke="#3D6FC1" stroke-width="2" stroke-miterlimit="10" x1="87.225" y1="114.029" x2="12.762" y2="-14.035"/>
<line fill="none" stroke="#3D6FC1" stroke-width="2" stroke-miterlimit="10" x1="111.526" y1="91.229" x2="-11.54" y2="8.767"/>
<line fill="none" stroke="#3D6FC1" stroke-width="2" stroke-miterlimit="10" x1="123.374" y1="60.081" x2="-23.387" y2="39.915"/>
<line fill="none" stroke="#3D6FC1" stroke-width="2" stroke-miterlimit="10" x1="120.368" y1="26.893" x2="-20.379" y2="73.104"/>
<line fill="none" stroke="#3D6FC1" stroke-width="2" stroke-miterlimit="10" x1="103.117" y1="-1.619" x2="-3.129" y2="101.614"/>
<line fill="none" stroke="#3D6FC1" stroke-width="2" stroke-miterlimit="10" x1="75.114" y1="-19.683" x2="24.876" y2="119.678"/>
<line fill="none" stroke="#3D6FC1" stroke-width="2" stroke-miterlimit="10" x1="42.026" y1="-23.643" x2="57.963" y2="123.637"/>
<line fill="none" stroke="#3D6FC1" stroke-width="2" stroke-miterlimit="10" x1="10.551" y1="-12.697" x2="89.437" y2="112.691"/>
<line fill="none" stroke="#3D6FC1" stroke-width="2" stroke-miterlimit="10" x1="-12.941" y1="10.938" x2="112.929" y2="89.056"/>
<line fill="none" stroke="#3D6FC1" stroke-width="2" stroke-miterlimit="10" x1="-23.694" y1="42.48" x2="123.681" y2="57.515"/>
<line fill="none" stroke="#3D6FC1" stroke-width="2" stroke-miterlimit="10" x1="-19.531" y1="75.544" x2="119.518" y2="24.452"/>
<line fill="none" stroke="#3D6FC1" stroke-width="2" stroke-miterlimit="10" x1="-1.295" y1="103.437" x2="101.282" y2="-3.44"/>
<line fill="none" stroke="#3D6FC1" stroke-width="2" stroke-miterlimit="10" x1="27.322" y1="120.511" x2="72.667" y2="-20.516"/>
<line fill="none" stroke="#3D6FC1" stroke-width="2" stroke-miterlimit="10" x1="60.526" y1="123.313" x2="39.461" y2="-23.319"/>
<line fill="none" stroke="#3D6FC1" stroke-width="2" stroke-miterlimit="10" x1="91.6" y1="111.276" x2="8.387" y2="-11.28"/>
<line fill="none" stroke="#3D6FC1" stroke-width="2" stroke-miterlimit="10" x1="114.251" y1="86.836" x2="-14.265" y2="13.16"/>
<line fill="none" stroke="#3D6FC1" stroke-width="2" stroke-miterlimit="10" x1="123.896" y1="54.939" x2="-23.91" y2="45.057"/>
<line fill="none" stroke="#3D6FC1" stroke-width="2" stroke-miterlimit="10" x1="118.582" y1="22.042" x2="-18.596" y2="77.955"/>
<line fill="none" stroke="#3D6FC1" stroke-width="2" stroke-miterlimit="10" x1="99.386" y1="-5.196" x2="0.603" y2="105.192"/>
<line fill="none" stroke="#3D6FC1" stroke-width="2" stroke-miterlimit="10" x1="70.191" y1="-21.263" x2="29.798" y2="121.259"/>
<line fill="none" stroke="#3D6FC1" stroke-width="2" stroke-miterlimit="10" x1="36.909" y1="-22.905" x2="63.079" y2="122.9"/>
<line fill="none" stroke="#3D6FC1" stroke-width="2" stroke-miterlimit="10" x1="6.276" y1="-9.79" x2="93.713" y2="109.786"/>
<line fill="none" stroke="#3D6FC1" stroke-width="2" stroke-miterlimit="10" x1="-15.509" y1="15.425" x2="115.498" y2="84.569"/>
<line fill="none" stroke="#3D6FC1" stroke-width="2" stroke-miterlimit="10" x1="-24.035" y1="47.639" x2="124.024" y2="52.355"/>
<line fill="none" stroke="#3D6FC1" stroke-width="2" stroke-miterlimit="10" x1="-17.577" y1="80.329" x2="117.566" y2="19.665"/>
<line fill="none" stroke="#3D6FC1" stroke-width="2" stroke-miterlimit="10" x1="2.558" y1="106.88" x2="97.432" y2="-6.888"/>
<line fill="none" stroke="#3D6FC1" stroke-width="2" stroke-miterlimit="10" x1="32.295" y1="121.919" x2="67.693" y2="-21.925"/>
<line fill="none" stroke="#3D6FC1" stroke-width="2" stroke-miterlimit="10" x1="65.615" y1="122.398" x2="34.373" y2="-22.406"/>
<line fill="none" stroke="#3D6FC1" stroke-width="2" stroke-miterlimit="10" x1="95.773" y1="108.224" x2="4.215" y2="-8.23"/>
<line fill="none" stroke="#3D6FC1" stroke-width="2" stroke-miterlimit="10" x1="116.665" y1="82.263" x2="-16.677" y2="17.731"/>
<line fill="none" stroke="#3D6FC1" stroke-width="2" stroke-miterlimit="10" x1="124.061" y1="49.771" x2="-24.074" y2="50.224"/>
<line fill="none" stroke="#3D6FC1" stroke-width="2" stroke-miterlimit="10" x1="116.466" y1="17.325" x2="-16.479" y2="82.67"/>
<line fill="none" stroke="#3D6FC1" stroke-width="2" stroke-miterlimit="10" x1="95.416" y1="-8.508" x2="4.571" y2="108.503"/>
<line fill="none" stroke="#3D6FC1" stroke-width="2" stroke-miterlimit="10" x1="65.172" y1="-22.499" x2="34.816" y2="122.493"/>
<line fill="none" stroke="#3D6FC1" stroke-width="2" stroke-miterlimit="10" x1="31.855" y1="-21.815" x2="68.132" y2="121.81"/>
<line fill="none" stroke="#3D6FC1" stroke-width="2" stroke-miterlimit="10" x1="2.211" y1="-6.596" x2="97.776" y2="106.59"/>
<line fill="none" stroke="#3D6FC1" stroke-width="2" stroke-miterlimit="10" x1="-17.762" y1="20.079" x2="117.749" y2="79.916"/>
<line fill="none" stroke="#3D6FC1" stroke-width="2" stroke-miterlimit="10" x1="-24.021" y1="52.81" x2="124.008" y2="47.186"/>
<line fill="none" stroke="#3D6FC1" stroke-width="2" stroke-miterlimit="10" x1="-15.297" y1="84.971" x2="115.283" y2="15.025"/>
<line fill="none" stroke="#3D6FC1" stroke-width="2" stroke-miterlimit="10" x1="6.641" y1="110.052" x2="93.345" y2="-10.057"/>
<line fill="none" stroke="#3D6FC1" stroke-width="2" stroke-miterlimit="10" x1="37.356" y1="122.979" x2="62.63" y2="-22.983"/>
<line fill="none" stroke="#3D6FC1" stroke-width="2" stroke-miterlimit="10" x1="70.629" y1="121.132" x2="29.358" y2="-21.137"/>
<line fill="none" stroke="#3D6FC1" stroke-width="2" stroke-miterlimit="10" x1="99.725" y1="104.889" x2="0.264" y2="-4.891"/>
<line fill="none" stroke="#3D6FC1" stroke-width="2" stroke-miterlimit="10" x1="118.754" y1="77.533" x2="-18.765" y2="22.464"/>
<line fill="none" stroke="#3D6FC1" stroke-width="2" stroke-miterlimit="10" x1="123.866" y1="44.604" x2="-23.876" y2="55.393"/>
<line fill="none" stroke="#3D6FC1" stroke-width="2" stroke-miterlimit="10" x1="114.025" y1="12.765" x2="-14.035" y2="87.229"/>
<line fill="none" stroke="#3D6FC1" stroke-width="2" stroke-miterlimit="10" x1="91.224" y1="-11.536" x2="8.767" y2="111.53"/>
<line fill="none" stroke="#3D6FC1" stroke-width="2" stroke-miterlimit="10" x1="60.075" y1="-23.383" x2="39.914" y2="123.376"/>
<line fill="none" stroke="#3D6FC1" stroke-width="2" stroke-miterlimit="10" x1="26.888" y1="-20.375" x2="73.101" y2="120.369"/>
<line fill="none" stroke="#3D6FC1" stroke-width="2" stroke-miterlimit="10" x1="-1.624" y1="-3.124" x2="101.61" y2="103.117"/>
<line fill="none" stroke="#3D6FC1" stroke-width="2" stroke-miterlimit="10" x1="-19.686" y1="24.879" x2="119.672" y2="75.115"/>
<line fill="none" stroke="#3D6FC1" stroke-width="2" stroke-miterlimit="10" x1="-23.645" y1="57.968" x2="123.631" y2="42.028"/>
<line fill="none" stroke="#3D6FC1" stroke-width="2" stroke-miterlimit="10" x1="-12.698" y1="89.442" x2="112.686" y2="10.554"/>
<line fill="none" stroke="#3D6FC1" stroke-width="2" stroke-miterlimit="10" x1="10.938" y1="112.933" x2="89.049" y2="-12.936"/>
<line fill="none" stroke="#3D6FC1" stroke-width="2" stroke-miterlimit="10" x1="42.479" y1="123.685" x2="57.509" y2="-23.688"/>
<line fill="none" stroke="#3D6FC1" stroke-width="2" stroke-miterlimit="10" x1="75.542" y1="119.52" x2="24.447" y2="-19.524"/>
<line fill="none" stroke="#3D6FC1" stroke-width="2" stroke-miterlimit="10" x1="103.433" y1="101.285" x2="-3.445" y2="-1.289"/>
<line fill="none" stroke="#3D6FC1" stroke-width="2" stroke-miterlimit="10" x1="120.508" y1="72.669" x2="-20.519" y2="27.328"/>
<line fill="none" stroke="#3D6FC1" stroke-width="2" stroke-miterlimit="10" x1="123.309" y1="39.463" x2="-23.32" y2="60.533"/>
<line fill="none" stroke="#3D6FC1" stroke-width="2" stroke-miterlimit="10" x1="111.271" y1="8.39" x2="-11.282" y2="91.606"/>
<line fill="none" stroke="#3D6FC1" stroke-width="2" stroke-miterlimit="10" x1="86.829" y1="-14.261" x2="13.16" y2="114.257"/>
<line fill="none" stroke="#3D6FC1" stroke-width="2" stroke-miterlimit="10" x1="54.934" y1="-23.905" x2="45.057" y2="123.901"/>
<line fill="none" stroke="#3D6FC1" stroke-width="2" stroke-miterlimit="10" x1="22.037" y1="-18.59" x2="77.953" y2="118.584"/>
<line fill="none" stroke="#3D6FC1" stroke-width="2" stroke-miterlimit="10" x1="-5.2" y1="0.606" x2="105.189" y2="99.388"/>
<line fill="none" stroke="#3D6FC1" stroke-width="2" stroke-miterlimit="10" x1="-21.267" y1="29.801" x2="121.255" y2="70.193"/>
<line fill="none" stroke="#3D6FC1" stroke-width="2" stroke-miterlimit="10" x1="-22.908" y1="63.084" x2="122.897" y2="36.91"/>
<line fill="none" stroke="#3D6FC1" stroke-width="2" stroke-miterlimit="10" x1="-9.793" y1="93.717" x2="109.782" y2="6.276"/>
<line fill="none" stroke="#3D6FC1" stroke-width="2" stroke-miterlimit="10" x1="15.424" y1="115.501" x2="84.564" y2="-15.508"/>
<line fill="none" stroke="#3D6FC1" stroke-width="2" stroke-miterlimit="10" x1="47.637" y1="124.027" x2="52.351" y2="-24.033"/>
<line fill="none" stroke="#3D6FC1" stroke-width="2" stroke-miterlimit="10" x1="80.328" y1="117.568" x2="19.66" y2="-17.575"/>
<line fill="none" stroke="#3D6FC1" stroke-width="2" stroke-miterlimit="10" x1="106.88" y1="97.432" x2="-6.893" y2="2.562"/>
<line fill="none" stroke="#3D6FC1" stroke-width="2" stroke-miterlimit="10" x1="121.917" y1="67.693" x2="-21.93" y2="32.299"/>
<line fill="none" stroke="#3D6FC1" stroke-width="2" stroke-miterlimit="10" x1="122.395" y1="34.375" x2="-22.408" y2="65.619"/>
<line fill="none" stroke="#3D6FC1" stroke-width="2" stroke-miterlimit="10" x1="108.218" y1="4.217" x2="-8.232" y2="95.777"/>
<line fill="none" stroke="#3D6FC1" stroke-width="2" stroke-miterlimit="10" x1="82.257" y1="-16.674" x2="17.729" y2="116.669"/>
<line fill="none" stroke="#3D6FC1" stroke-width="2" stroke-miterlimit="10" x1="49.765" y1="-24.07" x2="50.223" y2="124.064"/>
<line fill="none" stroke="#3D6FC1" stroke-width="2" stroke-miterlimit="10" x1="17.32" y1="-16.473" x2="82.669" y2="116.47"/>
<line fill="none" stroke="#3D6FC1" stroke-width="2" stroke-miterlimit="10" x1="-8.512" y1="4.577" x2="108.502" y2="95.42"/>
<line fill="none" stroke="#3D6FC1" stroke-width="2" stroke-miterlimit="10" x1="-22.502" y1="34.822" x2="122.491" y2="65.174"/>
<line fill="none" stroke="#3D6FC1" stroke-width="2" stroke-miterlimit="10" x1="-21.817" y1="68.138" x2="121.808" y2="31.857"/>
<line fill="none" stroke="#3D6FC1" stroke-width="2" stroke-miterlimit="10" x1="-6.597" y1="97.782" x2="106.587" y2="2.213"/>
<line fill="none" stroke="#3D6FC1" stroke-width="2" stroke-miterlimit="10" x1="20.078" y1="117.755" x2="79.912" y2="-17.76"/>
<line fill="none" stroke="#3D6FC1" stroke-width="2" stroke-miterlimit="10" x1="52.81" y1="124.011" x2="47.182" y2="-24.018"/>
<line fill="none" stroke="#3D6FC1" stroke-width="2" stroke-miterlimit="10" x1="94.751" y1="109.016" x2="5.235" y2="-9.02"/>
<line fill="none" stroke="#3D6FC1" stroke-width="2" stroke-miterlimit="10" x1="116.092" y1="83.423" x2="-16.106" y2="16.574"/>
<line fill="none" stroke="#3D6FC1" stroke-width="2" stroke-miterlimit="10" x1="124.054" y1="51.063" x2="-24.069" y2="48.932"/>
<line fill="none" stroke="#3D6FC1" stroke-width="2" stroke-miterlimit="10" x1="117.026" y1="18.488" x2="-17.041" y2="81.506"/>
<line fill="none" stroke="#3D6FC1" stroke-width="2" stroke-miterlimit="10" x1="96.429" y1="-7.708" x2="3.556" y2="107.703"/>
<line fill="none" stroke="#3D6FC1" stroke-width="2" stroke-miterlimit="10" x1="66.432" y1="-22.224" x2="33.552" y2="122.22"/>
<line fill="none" stroke="#3D6FC1" stroke-width="2" stroke-miterlimit="10" x1="33.107" y1="-22.121" x2="66.876" y2="122.116"/>
<line fill="none" stroke="#3D6FC1" stroke-width="2" stroke-miterlimit="10" x1="3.201" y1="-7.42" x2="96.783" y2="107.418"/>
<line fill="none" stroke="#3D6FC1" stroke-width="2" stroke-miterlimit="10" x1="-17.234" y1="18.903" x2="117.218" y2="81.096"/>
<line fill="none" stroke="#3D6FC1" stroke-width="2" stroke-miterlimit="10" x1="-24.063" y1="51.521" x2="124.047" y2="48.479"/>
<line fill="none" stroke="#3D6FC1" stroke-width="2" stroke-miterlimit="10" x1="-15.899" y1="83.831" x2="115.886" y2="16.17"/>
<line fill="none" stroke="#3D6FC1" stroke-width="2" stroke-miterlimit="10" x1="5.599" y1="109.292" x2="94.387" y2="-9.292"/>
<line fill="none" stroke="#3D6FC1" stroke-width="2" stroke-miterlimit="10" x1="36.085" y1="122.752" x2="63.902" y2="-22.752"/>
<line fill="none" stroke="#3D6FC1" stroke-width="2" stroke-miterlimit="10" x1="69.387" y1="121.485" x2="30.603" y2="-21.487"/>
<line fill="none" stroke="#3D6FC1" stroke-width="2" stroke-miterlimit="10" x1="98.761" y1="105.748" x2="1.229" y2="-5.753"/>
<line fill="none" stroke="#3D6FC1" stroke-width="2" stroke-miterlimit="10" x1="118.266" y1="78.728" x2="-18.276" y2="21.267"/>
<line fill="none" stroke="#3D6FC1" stroke-width="2" stroke-miterlimit="10" x1="123.95" y1="45.892" x2="-23.961" y2="54.102"/>
<line fill="none" stroke="#3D6FC1" stroke-width="2" stroke-miterlimit="10" x1="114.666" y1="13.887" x2="-14.679" y2="86.106"/>
<line fill="none" stroke="#3D6FC1" stroke-width="2" stroke-miterlimit="10" x1="92.291" y1="-10.809" x2="7.696" y2="110.802"/>
<line fill="none" stroke="#3D6FC1" stroke-width="2" stroke-miterlimit="10" x1="61.354" y1="-23.197" x2="38.631" y2="123.189"/>
<line fill="none" stroke="#3D6FC1" stroke-width="2" stroke-miterlimit="10" x1="28.117" y1="-20.77" x2="71.864" y2="120.763"/>
<line fill="none" stroke="#3D6FC1" stroke-width="2" stroke-miterlimit="10" x1="-0.692" y1="-4.018" x2="100.673" y2="104.013"/>
<line fill="none" stroke="#3D6FC1" stroke-width="2" stroke-miterlimit="10" x1="-19.242" y1="23.667" x2="119.222" y2="76.328"/>
<line fill="none" stroke="#3D6FC1" stroke-width="2" stroke-miterlimit="10" x1="-23.777" y1="56.682" x2="123.758" y2="43.316"/>
<line fill="none" stroke="#3D6FC1" stroke-width="2" stroke-miterlimit="10" x1="-13.381" y1="88.345" x2="113.363" y2="11.655"/>
<line fill="none" stroke="#3D6FC1" stroke-width="2" stroke-miterlimit="10" x1="9.843" y1="112.245" x2="90.142" y2="-12.245"/>
<line fill="none" stroke="#3D6FC1" stroke-width="2" stroke-miterlimit="10" x1="41.192" y1="123.546" x2="58.792" y2="-23.544"/>
<line fill="none" stroke="#3D6FC1" stroke-width="2" stroke-miterlimit="10" x1="74.324" y1="119.96" x2="25.662" y2="-19.959"/>
<line fill="none" stroke="#3D6FC1" stroke-width="2" stroke-miterlimit="10" x1="102.531" y1="102.212" x2="-2.542" y2="-2.212"/>
<line fill="none" stroke="#3D6FC1" stroke-width="2" stroke-miterlimit="10" x1="120.104" y1="73.896" x2="-20.114" y2="26.101"/>
</svg>
