<?xml version="1.0" encoding="utf-8"?>
<!-- Generator: Adobe Illustrator 16.0.0, SVG Export Plug-In . SVG Version: 6.00 Build 0)  -->
<!DOCTYPE svg PUBLIC "-//W3C//DTD SVG 1.1//EN" "http://www.w3.org/Graphics/SVG/1.1/DTD/svg11.dtd">
<svg version="1.1" id="Layer_1" xmlns="http://www.w3.org/2000/svg" xmlns:xlink="http://www.w3.org/1999/xlink" x="0px" y="0px"
	 width="100px" height="100px" viewBox="0 0 100 100" enable-background="new 0 0 100 100" xml:space="preserve">
<path fill="#FFFFFF" d="M106.395,50c0,31.146-25.248,56.394-56.394,56.394C18.851,106.395-6.395,81.146-6.395,50
	C-6.395,18.851,18.851-6.395,50-6.395C81.146-6.395,106.395,18.851,106.395,50z"/>
<g>
	<circle fill="#FFEE71" cx="50" cy="50" r="26.667"/>
	<circle fill="none" cx="50" cy="50" r="26.667"/>
</g>
<path fill="#4A58A0" d="M60.323,24.088c-29.096-6.437-47.592,21.645-38.756,40.727c12.461,26.912,32.806,30.998,69.332,26.813
	c72.184-8.274,37.455,59.358,8.287,58.95C70.014,150.17-0.716,122.186-0.078,76.66C0.561,31.132,33.034,11.715,60.323,24.088z"/>
<path fill="#4A58A0" d="M67.314,71.869C87.4,49.856,72.282,19.823,51.336,17.968C21.797,15.35,8.108,30.947-6.472,64.7
	c-28.813,66.692-70.133,2.868-55.231-22.212C-46.806,17.404,12.715-29.953,51.861-6.7C91.007,16.553,91.646,54.382,67.314,71.869z"
	/>
<path fill="#4A58A0" d="M22.396,53.999c8.957,28.423,42.521,30.419,54.642,13.233C94.127,42.996,87.506,23.33,65.631-6.224
	C22.405-64.619,98.35-68.323,112.564-42.846c14.22,25.475,25.306,100.725-14.455,122.915
	C58.348,102.255,25.308,83.822,22.396,53.999z"/>
<g id="Layer_1_1_">
</g>
</svg>
