<?xml version="1.0" encoding="utf-8"?>
<!-- Generator: Adobe Illustrator 16.0.0, SVG Export Plug-In . SVG Version: 6.00 Build 0)  -->
<!DOCTYPE svg PUBLIC "-//W3C//DTD SVG 1.1//EN" "http://www.w3.org/Graphics/SVG/1.1/DTD/svg11.dtd">
<svg version="1.1" id="Layer_1" xmlns="http://www.w3.org/2000/svg" xmlns:xlink="http://www.w3.org/1999/xlink" x="0px" y="0px"
	 width="125.383px" height="125.385px" viewBox="0 0 125.383 125.385" enable-background="new 0 0 125.383 125.385"
	 xml:space="preserve">
<g>
	<path fill="#4a58a0" d="M116.724,110.835c-0.477-2.426,3.326-5.242,8.66-6.551v-3.57c-0.908,0.314-1.885,0.584-2.91,0.793
		c-5.598,1.139-10.549,0.051-11.059-2.43c-0.508-2.479,3.615-5.406,9.213-6.545c1.678-0.342,3.295-0.479,4.756-0.441V71.829
		c-0.717,0.254-1.477,0.477-2.275,0.652c-4.879,1.074-9.244,0.145-9.754-2.078c-0.508-2.223,3.033-4.895,7.912-5.967
		c1.447-0.318,2.848-0.457,4.117-0.441v-7.298c-3.316,0.215-5.947-0.663-6.35-2.318c-0.471-1.951,2.316-4.287,6.35-5.444V-0.001
		H42.925c-0.527,0.669-1.373,1.287-2.418,1.697c-2.113,0.832-4.234,0.503-4.736-0.734c-0.123-0.301-0.135-0.629-0.059-0.963H0v8.94
		c0.896,0.12,1.588,0.511,1.848,1.148c0.408,1.01-0.396,2.305-1.848,3.2v7.176c0.352-0.188,0.721-0.364,1.125-0.509
		c2.43-0.859,4.811-0.463,5.313,0.889c0.504,1.351-1.059,3.143-3.488,4.001C1.904,25.214,0.88,25.338,0,25.268V41.44
		c0.043-0.014,0.084-0.029,0.129-0.042c3.064-0.915,5.957-0.38,6.463,1.196c0.504,1.576-1.57,3.596-4.635,4.51
		c-0.67,0.2-1.326,0.319-1.957,0.385v77.897h125.385v-11.572C120.789,114.137,117.148,112.979,116.724,110.835z M109.189,64.696
		c-4.533,1.045-8.617,0.189-9.125-1.91c-0.51-2.1,2.754-4.646,7.285-5.688c4.533-1.044,8.619-0.188,9.127,1.909
		C116.984,61.108,113.72,63.655,109.189,64.696z M68.101,60.23c-4.016,0.998-7.68,0.256-8.186-1.659
		c-0.508-1.915,2.336-4.273,6.35-5.271c4.016-0.999,7.682-0.256,8.188,1.657C74.957,56.871,72.113,59.232,68.101,60.23z
		 M78.824,59.737c4.33-1.025,8.252-0.214,8.76,1.813c0.506,2.027-2.594,4.503-6.924,5.527c-4.332,1.025-8.252,0.215-8.76-1.813
		S74.492,60.764,78.824,59.737z M64.812,44.2c-3.494,0.953-6.738,0.323-7.244-1.405c-0.506-1.73,1.918-3.903,5.414-4.855
		c3.494-0.954,6.738-0.324,7.244,1.404C70.732,41.074,68.308,43.25,64.812,44.2z M61.464,48.45c0.506,1.803-2.082,4.05-5.779,5.02
		c-3.697,0.971-7.104,0.297-7.611-1.505c-0.506-1.803,2.082-4.047,5.779-5.019C57.55,45.976,60.958,46.65,61.464,48.45z
		 M51.578,36.83c-3.15,0.924-6.113,0.368-6.617-1.237c-0.506-1.607,1.639-3.656,4.789-4.579s6.113-0.368,6.619,1.238
		C56.873,33.859,54.728,35.909,51.578,36.83z M49.113,41.724c0.504,1.689-1.828,3.823-5.207,4.765
		c-3.381,0.943-6.531,0.338-7.037-1.351c-0.504-1.689,1.826-3.821,5.207-4.765C45.457,39.431,48.607,40.034,49.113,41.724z
		 M33.255,38.976c-3.063,0.915-5.957,0.38-6.461-1.196c-0.506-1.577,1.568-3.595,4.633-4.51c3.064-0.916,5.957-0.38,6.463,1.195
		C38.394,36.041,36.318,38.062,33.255,38.976z M24.23,30.622c-2.748,0.889-5.385,0.422-5.889-1.042s1.314-3.367,4.063-4.255
		c2.746-0.888,5.383-0.422,5.887,1.041C28.794,27.831,26.976,29.737,24.23,30.622z M21.55,38.556
		c0.504,1.577-1.57,3.597-4.635,4.511c-3.064,0.915-5.957,0.379-6.461-1.196c-0.504-1.576,1.568-3.595,4.633-4.51
		C18.152,36.445,21.044,36.98,21.55,38.556z M24.25,44.741c3.379-0.942,6.531-0.338,7.035,1.351
		c0.506,1.689-1.826,3.822-5.205,4.765c-3.381,0.943-6.531,0.339-7.037-1.35C18.539,47.816,20.869,45.686,24.25,44.741z
		 M34.337,51.631c3.697-0.972,7.105-0.297,7.611,1.504c0.506,1.803-2.082,4.05-5.777,5.02c-3.699,0.972-7.105,0.297-7.611-1.505
		S30.64,52.602,34.337,51.631z M44.964,58.317c4.014-0.999,7.678-0.256,8.186,1.657c0.508,1.916-2.338,4.277-6.352,5.273
		c-4.014,0.998-7.678,0.256-8.186-1.658C38.107,61.675,40.949,59.315,44.964,58.317z M55.734,65.091
		c4.33-1.027,8.254-0.215,8.76,1.813c0.508,2.027-2.594,4.502-6.922,5.527c-4.332,1.027-8.254,0.215-8.762-1.813
		C48.304,68.591,51.404,66.116,55.734,65.091z M66.253,72.239c4.648-1.055,8.828-0.172,9.336,1.967
		c0.508,2.141-2.85,4.729-7.496,5.781c-4.646,1.055-8.824,0.174-9.334-1.967C58.251,75.88,61.607,73.294,66.253,72.239z
		 M76.132,80.055c4.963-1.082,9.4-0.133,9.908,2.119c0.508,2.256-3.104,4.957-8.066,6.037c-4.967,1.082-9.4,0.133-9.908-2.121
		C67.556,83.837,71.167,81.135,76.132,80.055z M83.537,72.352c-0.508-2.141,2.848-4.727,7.494-5.781s8.828-0.172,9.334,1.967
		c0.51,2.143-2.85,4.729-7.494,5.781C88.222,75.372,84.044,74.493,83.537,72.352z M102.398,74.108
		c4.963-1.082,9.398-0.131,9.906,2.119c0.51,2.254-3.104,4.957-8.066,6.037c-4.965,1.082-9.4,0.133-9.908-2.121
		C93.822,77.891,97.433,75.19,102.398,74.108z M110.5,42.739c4.189-1.015,7.992-0.232,8.5,1.741c0.506,1.978-2.479,4.4-6.662,5.412
		c-4.188,1.014-7.992,0.233-8.5-1.743C103.332,46.174,106.314,43.752,110.5,42.739z M94.453,37.137
		c3.842-0.984,7.365-0.279,7.871,1.572c0.506,1.854-2.197,4.153-6.039,5.135c-3.84,0.983-7.365,0.278-7.871-1.574
		C87.908,40.416,90.611,38.118,94.453,37.137z M92.511,50.533c4.189-1.014,7.992-0.232,8.5,1.742c0.506,1.978-2.479,4.4-6.664,5.412
		c-4.186,1.014-7.988,0.233-8.498-1.742C85.343,53.969,88.326,51.548,92.511,50.533z M78.972,31.392
		c3.498-0.953,6.74-0.323,7.246,1.405c0.506,1.73-1.92,3.905-5.414,4.856c-3.496,0.953-6.738,0.323-7.244-1.406
		S75.478,32.345,78.972,31.392z M77.48,44.297c3.842-0.983,7.365-0.278,7.871,1.572c0.506,1.854-2.197,4.153-6.037,5.136
		c-3.844,0.982-7.365,0.277-7.873-1.574C70.933,47.576,73.638,45.28,77.48,44.297z M64.859,25.017
		c3.15-0.923,6.113-0.369,6.621,1.237c0.504,1.606-1.643,3.657-4.791,4.578c-3.15,0.924-6.113,0.368-6.619-1.237
		C59.566,27.987,61.71,25.938,64.859,25.017z M52.91,17.521c2.805-0.893,5.488-0.413,5.992,1.07s-1.361,3.41-4.164,4.302
		c-2.807,0.893-5.488,0.413-5.992-1.07S50.105,18.413,52.91,17.521z M43.919,8.418c2.461-0.862,4.861-0.459,5.367,0.9
		c0.502,1.362-1.084,3.163-3.543,4.024c-2.459,0.862-4.861,0.458-5.365-0.902C39.876,11.079,41.46,9.28,43.919,8.418z
		 M38.513,23.073c2.805-0.893,5.486-0.414,5.992,1.069c0.502,1.484-1.363,3.411-4.166,4.303c-2.805,0.894-5.488,0.413-5.992-1.07
		C33.843,25.891,35.708,23.967,38.513,23.073z M35.365,14.573c0.502,1.362-1.084,3.164-3.541,4.024
		c-2.461,0.863-4.861,0.459-5.365-0.902c-0.504-1.359,1.082-3.161,3.541-4.021C32.458,12.81,34.861,13.213,35.365,14.573z
		 M24.939,2.362c2.113-0.832,4.234-0.504,4.738,0.733c0.502,1.237-0.805,2.916-2.918,3.747c-2.113,0.832-4.234,0.503-4.736-0.734
		C21.521,4.869,22.826,3.194,24.939,2.362z M20.806,17.121c0.502,1.353-1.059,3.144-3.488,4.001
		c-2.432,0.86-4.811,0.464-5.314-0.888c-0.502-1.352,1.061-3.141,3.488-4.001C17.923,15.375,20.302,15.772,20.806,17.121z
		 M11.191,5.687c2.113-0.832,4.234-0.504,4.738,0.733c0.502,1.237-0.803,2.916-2.916,3.747S8.779,10.67,8.275,9.433
		C7.773,8.194,9.078,6.519,11.191,5.687z M3.187,33.448c-0.504-1.463,1.314-3.367,4.061-4.254c2.748-0.888,5.385-0.422,5.889,1.041
		c0.504,1.464-1.314,3.369-4.063,4.256C6.328,35.38,3.691,34.912,3.187,33.448z M2.515,53.679c-0.506-1.689,1.824-3.82,5.205-4.765
		c3.383-0.942,6.531-0.338,7.037,1.351c0.504,1.688-1.828,3.823-5.207,4.766C6.169,55.973,3.021,55.367,2.515,53.679z
		 M10.251,60.977c-0.506-1.803,2.08-4.048,5.777-5.02c3.697-0.971,7.104-0.297,7.611,1.505c0.506,1.803-2.084,4.05-5.779,5.02
		C14.164,63.452,10.757,62.778,10.251,60.977z M18.417,68.079c-0.506-1.916,2.338-4.273,6.352-5.272
		c4.016-0.999,7.68-0.256,8.188,1.659c0.506,1.914-2.34,4.273-6.352,5.271C22.589,70.735,18.925,69.993,18.417,68.079z
		 M26.73,75.268c-0.508-2.027,2.592-4.5,6.922-5.525s8.254-0.215,8.76,1.813c0.508,2.027-2.594,4.504-6.922,5.527
		C31.158,78.108,27.238,77.298,26.73,75.268z M34.896,82.825c-0.508-2.141,2.85-4.729,7.494-5.779
		c4.648-1.057,8.828-0.176,9.336,1.965s-2.85,4.729-7.494,5.783C39.583,85.846,35.406,84.966,34.896,82.825z M42.634,91.032
		c-0.508-2.254,3.104-4.955,8.068-6.035c4.963-1.084,9.4-0.133,9.908,2.119c0.508,2.254-3.105,4.957-8.068,6.037
		C47.58,94.235,43.144,93.284,42.634,91.032z M49.654,100.167c-0.51-2.365,3.357-5.182,8.639-6.289
		c5.281-1.111,9.977-0.092,10.484,2.273c0.508,2.367-3.361,5.184-8.641,6.291C54.857,103.552,50.164,102.532,49.654,100.167z
		 M55.669,110.512c-0.51-2.479,3.615-5.408,9.213-6.545c5.598-1.139,10.549-0.049,11.059,2.43s-3.617,5.408-9.213,6.545
		C61.13,114.077,56.181,112.991,55.669,110.512z M72.027,124.932c-5.914,1.164-11.121,0.008-11.635-2.584
		c-0.51-2.592,3.871-5.635,9.785-6.799c5.914-1.166,11.123-0.008,11.633,2.582C82.322,120.725,77.939,123.768,72.027,124.932z
		 M76.335,95.118c-0.508-2.365,3.359-5.182,8.641-6.291c5.279-1.107,9.977-0.09,10.482,2.275c0.51,2.365-3.359,5.182-8.639,6.291
		C81.539,98.503,76.845,97.483,76.335,95.118z M83.181,105.393c-0.51-2.48,3.613-5.408,9.211-6.545
		c5.598-1.139,10.551-0.049,11.059,2.428c0.512,2.48-3.615,5.41-9.211,6.545C88.64,108.958,83.691,107.87,83.181,105.393z
		 M99.837,119.786c-5.914,1.164-11.121,0.01-11.633-2.584c-0.51-2.592,3.871-5.635,9.785-6.799
		c5.914-1.166,11.123-0.008,11.633,2.582C110.132,115.579,105.75,118.622,99.837,119.786z M103.787,88.95
		c-0.508-2.365,3.359-5.182,8.641-6.289c5.279-1.109,9.975-0.092,10.482,2.273c0.51,2.367-3.361,5.184-8.641,6.291
		C108.988,92.335,104.296,91.317,103.787,88.95z"/>
	<path fill="#FFEE71" d="M1.847,10.089C1.587,9.45,0.894,9.061,0,8.941v4.35C1.451,12.394,2.255,11.099,1.847,10.089z"/>
	<path fill="#FFEE71" d="M2.949,24.846c2.43-0.858,3.992-2.65,3.488-4.001c-0.504-1.352-2.883-1.748-5.313-0.889
		C0.72,20.101,0.349,20.276,0,20.465v4.804C0.88,25.339,1.904,25.215,2.949,24.846z"/>
	<path fill="#FFEE71" d="M13.136,30.236c-0.504-1.463-3.141-1.929-5.889-1.041c-2.746,0.887-4.564,2.791-4.061,4.254
		c0.504,1.464,3.141,1.932,5.887,1.043C11.822,33.605,13.64,31.699,13.136,30.236z"/>
	<path fill="#FFEE71" d="M10.455,41.869c0.504,1.575,3.396,2.111,6.461,1.196c3.063-0.914,5.139-2.934,4.635-4.511
		c-0.506-1.575-3.398-2.11-6.463-1.195S9.951,40.293,10.455,41.869z"/>
	<path fill="#FFEE71" d="M26.08,50.856c3.379-0.941,5.711-3.074,5.205-4.765c-0.504-1.688-3.656-2.293-7.035-1.351
		c-3.381,0.943-5.711,3.074-5.207,4.766C19.548,51.195,22.699,51.8,26.08,50.856z"/>
	<path fill="#FFEE71" d="M36.171,58.154c3.695-0.97,6.283-3.217,5.777-5.02c-0.506-1.802-3.914-2.476-7.611-1.504
		c-3.697,0.971-6.283,3.217-5.777,5.019S32.472,59.125,36.171,58.154z"/>
	<path fill="#FFEE71" d="M46.798,65.247c4.014-0.994,6.857-3.356,6.352-5.272c-0.508-1.913-4.172-2.656-8.186-1.657
		c-4.016,0.998-6.855,3.357-6.352,5.273C39.121,65.505,42.785,66.247,46.798,65.247z"/>
	<path fill="#FFEE71" d="M57.572,72.43c4.328-1.025,7.43-3.5,6.922-5.527c-0.506-2.025-4.43-2.84-8.76-1.813
		c-4.33,1.025-7.432,3.5-6.924,5.525C49.318,72.645,53.24,73.456,57.572,72.43z"/>
	<path fill="#FFEE71" d="M68.093,79.987c4.646-1.053,8.004-3.641,7.496-5.781c-0.508-2.139-4.688-3.021-9.336-1.967
		c-4.646,1.055-8.002,3.641-7.494,5.781S63.445,81.042,68.093,79.987z"/>
	<path fill="#FFEE71" d="M77.974,88.212c4.961-1.08,8.574-3.781,8.066-6.037c-0.508-2.252-4.945-3.201-9.908-2.119
		c-4.965,1.08-8.576,3.781-8.066,6.035C68.572,88.344,73.007,89.294,77.974,88.212z"/>
	<path fill="#FFEE71" d="M95.458,91.102c-0.508-2.363-5.203-3.383-10.482-2.273s-9.148,3.924-8.641,6.289
		c0.51,2.367,5.203,3.387,10.484,2.275C92.099,96.284,95.968,93.469,95.458,91.102z"/>
	<path fill="#FFEE71" d="M94.238,107.821c5.596-1.137,9.723-4.064,9.213-6.545c-0.508-2.479-5.461-3.566-11.059-2.43
		s-9.723,4.064-9.213,6.545C83.691,107.87,88.64,108.958,94.238,107.821z"/>
	
		<ellipse transform="matrix(-0.9812 0.1932 -0.1932 -0.9812 218.2738 208.8574)" fill="#FFEE71" cx="98.955" cy="115.07" rx="10.915" ry="4.781"/>
	<path fill="#FFEE71" d="M6.591,42.595c-0.506-1.576-3.398-2.111-6.463-1.196C0.083,41.411,0.042,41.427,0,41.441v6.049
		c0.631-0.064,1.287-0.185,1.957-0.385C5.021,46.19,7.095,44.171,6.591,42.595z"/>
	<path fill="#FFEE71" d="M14.757,50.265c-0.506-1.688-3.656-2.293-7.037-1.351c-3.381,0.943-5.711,3.074-5.205,4.765
		c0.504,1.688,3.654,2.294,7.035,1.352C12.929,54.088,15.261,51.953,14.757,50.265z"/>
	<path fill="#FFEE71" d="M23.64,57.462c-0.506-1.802-3.914-2.476-7.611-1.505c-3.695,0.972-6.283,3.217-5.777,5.02
		c0.506,1.802,3.914,2.475,7.611,1.505C21.558,61.512,24.146,59.265,23.64,57.462z"/>
	<path fill="#FFEE71" d="M32.955,64.466c-0.508-1.915-4.172-2.658-8.188-1.659c-4.014,0.999-6.855,3.356-6.35,5.272
		c0.508,1.914,4.172,2.656,8.186,1.658S33.46,66.38,32.955,64.466z"/>
	<path fill="#FFEE71" d="M42.412,71.553c-0.506-2.025-4.43-2.838-8.76-1.813c-4.33,1.027-7.43,3.5-6.922,5.527
		s4.428,2.84,8.76,1.813C39.818,76.057,42.919,73.581,42.412,71.553z"/>
	<path fill="#FFEE71" d="M51.728,79.01c-0.508-2.141-4.688-3.021-9.336-1.965c-4.646,1.053-8.002,3.641-7.494,5.779
		c0.508,2.141,4.688,3.021,9.334,1.969C48.876,83.739,52.234,81.151,51.728,79.01z"/>
	<path fill="#FFEE71" d="M60.611,87.116c-0.508-2.252-4.945-3.203-9.908-2.119c-4.965,1.08-8.576,3.781-8.068,6.035
		c0.51,2.252,4.945,3.203,9.908,2.121C57.505,92.073,61.119,89.37,60.611,87.116z"/>
	<path fill="#FFEE71" d="M60.136,102.442c5.279-1.107,9.148-3.924,8.643-6.291c-0.51-2.365-5.203-3.385-10.484-2.273
		c-5.281,1.107-9.148,3.924-8.641,6.289C50.164,102.532,54.857,103.552,60.136,102.442z"/>
	<path fill="#FFEE71" d="M66.728,112.94c5.596-1.135,9.723-4.064,9.213-6.545c-0.51-2.477-5.461-3.566-11.059-2.428
		c-5.598,1.137-9.723,4.064-9.213,6.545C56.181,112.991,61.13,114.077,66.728,112.94z"/>
	
		<ellipse transform="matrix(-0.9812 0.1932 -0.1932 -0.9812 164.1707 224.4257)" fill="#FFEE71" cx="71.144" cy="120.217" rx="10.915" ry="4.781"/>
	<path fill="#FFEE71" d="M13.013,10.166c2.113-0.83,3.42-2.509,2.918-3.746c-0.504-1.237-2.625-1.565-4.738-0.733
		s-3.42,2.508-2.916,3.746C8.779,10.67,10.9,10.998,13.013,10.166z"/>
	<path fill="#FFEE71" d="M12.003,20.235c0.504,1.352,2.883,1.748,5.314,0.888c2.43-0.857,3.99-2.648,3.488-4.001
		c-0.504-1.35-2.883-1.747-5.313-0.888C13.062,17.095,11.501,18.884,12.003,20.235z"/>
	<path fill="#FFEE71" d="M22.402,25.325c-2.746,0.888-4.564,2.791-4.061,4.255s3.141,1.931,5.887,1.042
		c2.746-0.886,4.564-2.791,4.063-4.256C27.785,24.904,25.15,24.438,22.402,25.325z"/>
	<path fill="#FFEE71" d="M31.427,33.27c-3.063,0.915-5.139,2.933-4.633,4.51c0.504,1.576,3.396,2.111,6.461,1.196
		c3.063-0.914,5.139-2.934,4.635-4.511C37.384,32.89,34.492,32.354,31.427,33.27z"/>
	<path fill="#FFEE71" d="M36.869,45.138c0.506,1.688,3.656,2.294,7.037,1.351c3.379-0.94,5.711-3.074,5.207-4.765
		c-0.506-1.688-3.656-2.293-7.037-1.351S36.365,43.448,36.869,45.138z"/>
	<path fill="#FFEE71" d="M53.853,46.947c-3.697,0.972-6.285,3.216-5.779,5.019c0.508,1.802,3.914,2.476,7.611,1.505
		c3.697-0.97,6.285-3.217,5.779-5.02C60.958,46.65,57.55,45.976,53.853,46.947z"/>
	<path fill="#FFEE71" d="M66.265,53.299c-4.014,0.998-6.855,3.356-6.35,5.271s4.17,2.657,8.186,1.659
		c4.014-0.998,6.855-3.358,6.352-5.273C73.945,53.043,70.279,52.3,66.265,53.299z"/>
	<path fill="#FFEE71" d="M71.9,65.264c0.508,2.027,4.428,2.84,8.76,1.813c4.33-1.023,7.43-3.498,6.924-5.526
		c-0.508-2.026-4.43-2.839-8.76-1.813C74.492,60.764,71.392,63.237,71.9,65.264z"/>
	<path fill="#FFEE71" d="M92.871,74.319c4.645-1.053,8.004-3.641,7.494-5.783c-0.506-2.139-4.688-3.02-9.334-1.965
		c-4.646,1.053-8.002,3.641-7.494,5.781C84.044,74.491,88.222,75.372,92.871,74.319z"/>
	<path fill="#FFEE71" d="M104.238,82.266c4.963-1.08,8.576-3.783,8.066-6.037c-0.508-2.252-4.943-3.203-9.906-2.119
		c-4.967,1.08-8.576,3.781-8.068,6.035C94.837,82.397,99.273,83.348,104.238,82.266z"/>
	<path fill="#FFEE71" d="M122.91,84.934c-0.508-2.363-5.203-3.383-10.482-2.273c-5.281,1.109-9.148,3.926-8.641,6.291
		c0.51,2.365,5.201,3.385,10.484,2.273C119.548,90.118,123.419,87.302,122.91,84.934z"/>
	<path fill="#FFEE71" d="M120.628,92.532c-5.598,1.139-9.721,4.064-9.213,6.545c0.51,2.48,5.461,3.566,11.059,2.43
		c1.025-0.209,2.002-0.479,2.91-0.793v-8.623C123.923,92.055,122.306,92.19,120.628,92.532z"/>
	<path fill="#FFEE71" d="M116.724,110.835c0.424,2.145,4.064,3.303,8.66,2.979v-9.527
		C120.05,105.593,116.248,108.409,116.724,110.835z"/>
	<path fill="#FFEE71" d="M26.761,6.843c2.113-0.831,3.418-2.509,2.916-3.747c-0.504-1.237-2.625-1.565-4.738-0.733
		s-3.42,2.508-2.916,3.746C22.525,7.346,24.646,7.675,26.761,6.843z"/>
	<path fill="#FFEE71" d="M26.458,17.695c0.504,1.361,2.904,1.767,5.365,0.902c2.457-0.86,4.043-2.662,3.541-4.024
		c-0.504-1.359-2.906-1.764-5.365-0.899C27.541,14.533,25.955,16.335,26.458,17.695z"/>
	<path fill="#FFEE71" d="M34.347,27.375c0.504,1.483,3.188,1.964,5.992,1.07c2.803-0.892,4.668-2.817,4.166-4.303
		c-0.506-1.483-3.188-1.962-5.992-1.069C35.708,23.967,33.843,25.891,34.347,27.375z"/>
	<path fill="#FFEE71" d="M49.75,31.014c-3.15,0.923-5.295,2.972-4.789,4.579c0.504,1.605,3.467,2.161,6.617,1.237
		c3.148-0.921,5.295-2.972,4.791-4.578C55.863,30.646,52.9,30.091,49.75,31.014z"/>
	<path fill="#FFEE71" d="M62.982,37.939c-3.496,0.952-5.92,3.125-5.414,4.855c0.506,1.729,3.75,2.358,7.244,1.405
		c3.494-0.951,5.92-3.126,5.414-4.856C69.722,37.615,66.478,36.985,62.982,37.939z"/>
	<path fill="#FFEE71" d="M71.441,49.431c0.506,1.853,4.029,2.558,7.871,1.574c3.84-0.981,6.545-3.28,6.039-5.136
		c-0.508-1.852-4.031-2.557-7.873-1.572C73.638,45.28,70.933,47.576,71.441,49.431z"/>
	<path fill="#FFEE71" d="M85.849,55.946c0.51,1.977,4.313,2.756,8.498,1.742c4.188-1.012,7.17-3.436,6.664-5.412
		c-0.508-1.976-4.313-2.756-8.5-1.742C88.326,51.548,85.343,53.969,85.849,55.946z"/>
	<path fill="#FFEE71" d="M107.351,57.099c-4.531,1.043-7.795,3.589-7.287,5.688c0.51,2.101,4.594,2.955,9.127,1.91
		c4.529-1.041,7.795-3.588,7.285-5.688C115.968,56.909,111.882,56.055,107.351,57.099z"/>
	<path fill="#FFEE71" d="M113.355,70.403c0.51,2.223,4.875,3.152,9.752,2.078c0.801-0.176,1.561-0.398,2.275-0.652v-7.834
		c-1.27-0.016-2.67,0.123-4.117,0.441C116.388,65.51,112.847,68.18,113.355,70.403z"/>
	<path fill="#FFEE71" d="M35.771,0.962c0.502,1.237,2.623,1.566,4.736,0.734c1.045-0.41,1.891-1.028,2.418-1.697h-7.213
		C35.636,0.333,35.648,0.661,35.771,0.962z"/>
	<path fill="#FFEE71" d="M45.744,13.344c2.459-0.861,4.045-2.662,3.543-4.024c-0.506-1.359-2.906-1.764-5.367-0.9
		c-2.459,0.861-4.043,2.661-3.541,4.022C40.882,13.802,43.285,14.206,45.744,13.344z"/>
	<path fill="#FFEE71" d="M48.746,21.823c0.504,1.483,3.186,1.963,5.992,1.07c2.803-0.892,4.668-2.817,4.164-4.302
		c-0.504-1.483-3.188-1.963-5.992-1.07C50.107,18.413,48.242,20.339,48.746,21.823z"/>
	<path fill="#FFEE71" d="M66.689,30.832c3.148-0.921,5.295-2.972,4.791-4.578c-0.508-1.606-3.471-2.16-6.621-1.237
		c-3.148,0.922-5.293,2.971-4.789,4.578C60.576,31.2,63.539,31.756,66.689,30.832z"/>
	<path fill="#FFEE71" d="M80.804,37.654c3.494-0.951,5.92-3.126,5.414-4.856c-0.506-1.729-3.748-2.358-7.246-1.405
		c-3.494,0.953-5.918,3.126-5.412,4.855C74.066,37.978,77.308,38.607,80.804,37.654z"/>
	<path fill="#FFEE71" d="M96.285,43.844c3.842-0.98,6.545-3.279,6.039-5.135c-0.506-1.853-4.029-2.558-7.871-1.572
		c-3.842,0.981-6.545,3.278-6.039,5.133C88.919,44.123,92.445,44.827,96.285,43.844z"/>
	<path fill="#FFEE71" d="M112.337,49.893c4.186-1.012,7.168-3.436,6.662-5.412c-0.508-1.975-4.313-2.756-8.5-1.741
		c-4.186,1.014-7.168,3.436-6.662,5.41C104.345,50.126,108.15,50.906,112.337,49.893z"/>
	<path fill="#FFEE71" d="M119.035,54.378c0.4,1.655,3.031,2.533,6.35,2.318v-7.764C121.351,50.091,118.564,52.427,119.035,54.378z"
		/>
</g>
</svg>
