<?xml version="1.0" encoding="utf-8"?>
<!-- Generator: Adobe Illustrator 16.0.0, SVG Export Plug-In . SVG Version: 6.00 Build 0)  -->
<!DOCTYPE svg PUBLIC "-//W3C//DTD SVG 1.1//EN" "http://www.w3.org/Graphics/SVG/1.1/DTD/svg11.dtd">
<svg version="1.1" id="Layer_1" xmlns="http://www.w3.org/2000/svg" xmlns:xlink="http://www.w3.org/1999/xlink" x="0px" y="0px"
	 width="125.383px" height="125.385px" viewBox="0 0 125.383 125.385" enable-background="new 0 0 125.383 125.385"
	 xml:space="preserve">
<g>
	<rect x="0" y="0" fill="#4a58a0" width="125.385" height="125.385"/>
	<g>
		<path fill="#FFEE71" d="M14.365,8.187c0.502,1.237-0.805,2.916-2.916,3.747C9.333,12.766,7.212,12.437,6.71,11.2
			C6.207,9.962,7.513,8.286,9.626,7.454C11.74,6.621,13.861,6.949,14.365,8.187z"/>
		<path fill="#FFEE71" d="M18.957,18.941c0.504,1.352-1.059,3.143-3.488,4.002c-2.432,0.858-4.811,0.462-5.313-0.889
			c-0.504-1.352,1.059-3.142,3.486-4C16.074,17.194,18.453,17.592,18.957,18.941z"/>
		<path fill="#FFEE71" d="M25.656,28.334c0.502,1.464-1.316,3.37-4.064,4.256c-2.746,0.889-5.383,0.422-5.887-1.042
			c-0.504-1.465,1.314-3.367,4.061-4.256C22.515,26.405,25.15,26.871,25.656,28.334z"/>
		<path fill="#FFEE71" d="M34.068,36.654c0.504,1.576-1.57,3.596-4.635,4.51c-3.063,0.915-5.955,0.379-6.461-1.197
			c-0.504-1.575,1.568-3.594,4.633-4.509S33.564,35.078,34.068,36.654z"/>
		<path fill="#FFEE71" d="M43.804,44.189c0.504,1.689-1.826,3.823-5.207,4.765c-3.381,0.943-6.529,0.339-7.035-1.351
			s1.824-3.82,5.205-4.765C40.148,41.897,43.298,42.502,43.804,44.189z"/>
		<path fill="#FFEE71" d="M54.468,51.232c0.504,1.803-2.084,4.05-5.777,5.019c-3.699,0.972-7.105,0.298-7.611-1.504
			c-0.506-1.803,2.08-4.048,5.777-5.018C50.554,48.758,53.96,49.432,54.468,51.232z"/>
		<path fill="#FFEE71" d="M65.667,58.073c0.508,1.915-2.338,4.275-6.35,5.273c-4.016,0.998-7.68,0.256-8.188-1.659
			c-0.506-1.915,2.336-4.274,6.352-5.272C61.496,55.416,65.162,56.159,65.667,58.073z"/>
		<path fill="#FFEE71" d="M77.013,64.999c0.508,2.028-2.594,4.503-6.924,5.528c-4.33,1.026-8.252,0.214-8.76-1.813
			c-0.508-2.026,2.592-4.501,6.924-5.525C72.583,62.161,76.505,62.973,77.013,64.999z"/>
		<path fill="#FFEE71" d="M88.107,72.303c0.508,2.142-2.85,4.729-7.496,5.782c-4.648,1.055-8.826,0.173-9.334-1.967
			c-0.508-2.141,2.848-4.729,7.494-5.781C83.419,69.283,87.599,70.164,88.107,72.303z"/>
		<path fill="#FFEE71" d="M98.56,80.274c0.508,2.254-3.105,4.956-8.066,6.036c-4.967,1.082-9.402,0.132-9.91-2.121
			s3.104-4.954,8.068-6.035C93.615,77.071,98.052,78.022,98.56,80.274z"/>
		<path fill="#FFEE71" d="M107.978,89.2c0.51,2.367-3.359,5.184-8.641,6.291c-5.281,1.109-9.973,0.091-10.482-2.275
			c-0.51-2.365,3.359-5.181,8.641-6.29C102.775,85.815,107.47,86.836,107.978,89.2z"/>
		<path fill="#FFEE71" d="M115.968,99.373c0.512,2.48-3.615,5.41-9.211,6.546c-5.598,1.139-10.549,0.051-11.059-2.429
			c-0.51-2.479,3.615-5.408,9.213-6.545C110.507,95.808,115.46,96.897,115.968,99.373z"/>
		
			<ellipse transform="matrix(-0.1932 -0.9812 0.9812 -0.1932 21.9459 244.4197)" fill="#FFEE71" cx="111.466" cy="113.187" rx="4.782" ry="10.915"/>
	</g>
</g>
</svg>
