<?xml version="1.0" encoding="utf-8"?>
<!-- Generator: Adobe Illustrator 16.0.0, SVG Export Plug-In . SVG Version: 6.00 Build 0)  -->
<!DOCTYPE svg PUBLIC "-//W3C//DTD SVG 1.1//EN" "http://www.w3.org/Graphics/SVG/1.1/DTD/svg11.dtd">
<svg version="1.1" id="Layer_1" xmlns="http://www.w3.org/2000/svg" xmlns:xlink="http://www.w3.org/1999/xlink" x="0px" y="0px"
	 width="125.383px" height="125.385px" viewBox="0 0 125.383 125.385" enable-background="new 0 0 125.383 125.385"
	 xml:space="preserve">
<g>
	<rect x="0" y="0.232" fill="#4a58a0" width="125.385" height="125.386"/>
	<g>
		<path fill="#FFEE71" d="M2.949,25.079c2.43-0.858,3.992-2.65,3.488-4.001c-0.504-1.352-2.883-1.748-5.313-0.889
			C0.72,20.334,0.349,20.509,0,20.697v4.805C0.88,25.571,1.904,25.447,2.949,25.079z"/>
		<path fill="#FFEE71" d="M10.455,42.102c0.504,1.575,3.396,2.111,6.461,1.196c3.063-0.914,5.139-2.935,4.635-4.511
			c-0.506-1.575-3.398-2.11-6.463-1.195S9.951,40.525,10.455,42.102z"/>
		<path fill="#FFEE71" d="M23.64,57.694c-0.506-1.801-3.914-2.475-7.611-1.504c-3.695,0.972-6.283,3.216-5.777,5.02
			c0.506,1.802,3.914,2.476,7.611,1.505C21.558,61.745,24.146,59.498,23.64,57.694z"/>
		<path fill="#FFEE71" d="M51.728,79.244c-0.508-2.141-4.688-3.021-9.336-1.967c-4.646,1.054-8.002,3.642-7.494,5.781
			s4.688,3.021,9.334,1.967C48.876,83.972,52.234,81.384,51.728,79.244z"/>
		
			<ellipse transform="matrix(-0.9812 0.1932 -0.1932 -0.9812 164.1914 224.8683)" fill="#FFEE71" cx="71.13" cy="120.441" rx="10.915" ry="4.781"/>
		<path fill="#FFEE71" d="M22.402,25.558c-2.746,0.887-4.564,2.791-4.061,4.255c0.504,1.463,3.141,1.931,5.887,1.042
			c2.746-0.886,4.564-2.791,4.063-4.256C27.785,25.136,25.15,24.672,22.402,25.558z"/>
		<path fill="#FFEE71" d="M36.869,45.371c0.506,1.688,3.656,2.294,7.037,1.351c3.379-0.941,5.711-3.074,5.207-4.765
			c-0.506-1.688-3.656-2.293-7.037-1.351S36.365,43.68,36.869,45.371z"/>
		<path fill="#FFEE71" d="M66.265,53.531c-4.014,0.998-6.855,3.357-6.35,5.272s4.17,2.657,8.186,1.659
			c4.014-0.998,6.855-3.358,6.352-5.273C73.945,53.275,70.279,52.532,66.265,53.531z"/>
		<path fill="#FFEE71" d="M104.238,82.499c4.963-1.08,8.576-3.783,8.066-6.037c-0.508-2.251-4.943-3.202-9.906-2.119
			c-4.967,1.081-8.576,3.782-8.068,6.035S99.273,83.581,104.238,82.499z"/>
		<path fill="#FFEE71" d="M45.744,13.577c2.459-0.861,4.045-2.662,3.543-4.024c-0.506-1.36-2.906-1.764-5.367-0.901
			c-2.459,0.862-4.043,2.662-3.541,4.023C40.882,14.035,43.285,14.439,45.744,13.577z"/>
		<path fill="#FFEE71" d="M48.746,22.055c0.504,1.483,3.186,1.963,5.992,1.07c2.803-0.893,4.668-2.817,4.164-4.303
			c-0.504-1.482-3.188-1.963-5.992-1.069C50.107,18.646,48.242,20.571,48.746,22.055z"/>
		<path fill="#FFEE71" d="M96.285,44.077c3.842-0.98,6.545-3.279,6.039-5.136c-0.506-1.852-4.029-2.557-7.871-1.571
			c-3.842,0.981-6.545,3.278-6.039,5.133C88.919,44.356,92.445,45.06,96.285,44.077z"/>
	</g>
	<rect x="0" y="0.232" fill="none" width="125.385" height="125.386"/>
</g>
</svg>
