<?xml version="1.0" encoding="utf-8"?>
<!-- Generator: Adobe Illustrator 16.0.0, SVG Export Plug-In . SVG Version: 6.00 Build 0)  -->
<!DOCTYPE svg PUBLIC "-//W3C//DTD SVG 1.1//EN" "http://www.w3.org/Graphics/SVG/1.1/DTD/svg11.dtd">
<svg version="1.1" xmlns="http://www.w3.org/2000/svg" xmlns:xlink="http://www.w3.org/1999/xlink" x="0px" y="0px" width="41.25px"
	 height="37px" viewBox="122.333 8.958 41.25 37" enable-background="new 122.333 8.958 41.25 37" xml:space="preserve">
<g id="Layer_2">
</g>
<g id="Layer_1">
	<line fill="none" stroke="#CDCED3" stroke-width="4" stroke-miterlimit="10" x1="131.557" y1="33.353" x2="126.078" y2="44.33"/>
	<g>
		<path fill="#FFFFFF" d="M150.755,10.894c-2.78,0-5.332,0.972-7.344,2.588c2.863,2.039,4.739,5.377,4.739,9.152
			c0,3.774-1.876,7.112-4.739,9.153c2.012,1.614,4.563,2.586,7.344,2.586c6.483,0,11.74-5.256,11.74-11.739
			C162.496,16.15,157.24,10.894,150.755,10.894z"/>
		<path fill="#FFFFFF" d="M146.152,22.634c0-3.239-1.679-6.09-4.208-7.739c-1.817,2.066-2.928,4.771-2.928,7.739
			c0,2.968,1.11,5.672,2.928,7.739C144.473,28.723,146.152,25.875,146.152,22.634z"/>
	</g>
	<circle fill="none" stroke="#CDCED3" stroke-width="2" stroke-miterlimit="10" cx="136.912" cy="22.634" r="11.74"/>
</g>
</svg>
