<?xml version="1.0" encoding="utf-8"?>
<!-- Generator: Adobe Illustrator 16.0.0, SVG Export Plug-In . SVG Version: 6.00 Build 0)  -->
<!DOCTYPE svg PUBLIC "-//W3C//DTD SVG 1.1//EN" "http://www.w3.org/Graphics/SVG/1.1/DTD/svg11.dtd">
<svg version="1.1" id="Layer_1" xmlns="http://www.w3.org/2000/svg" xmlns:xlink="http://www.w3.org/1999/xlink" x="0px" y="0px"
	 width="185px"
	 height="38px" viewBox="0 0 230.667 46.667" enableBackground="new 0 0 230.667 46.667"
	 xml:space="preserve">
<path fill="#CDCED3" d="M5.114,31.779h15.046v2.176H2.52V3.486h2.595V31.779z"/>
<path fill="#CDCED3" d="M24.367,4.773c0-0.473,0.153-0.871,0.46-1.195c0.307-0.326,0.726-0.49,1.255-0.49
	c0.53,0,0.952,0.164,1.266,0.49C27.663,3.902,27.82,4.3,27.82,4.773c0,0.472-0.157,0.866-0.471,1.185
	c-0.314,0.319-0.736,0.479-1.266,0.479c-0.53,0-0.949-0.16-1.255-0.479C24.521,5.639,24.367,5.245,24.367,4.773z M27.318,33.955
	h-2.511V11.312h2.511V33.955z"/>
<path fill="#CDCED3" d="M33.115,22.424c0-3.544,0.785-6.351,2.354-8.423c1.57-2.072,3.701-3.107,6.393-3.107
	c3.083,0,5.427,1.228,7.032,3.684l0.125-3.266h2.344v22.183c0,2.916-0.816,5.226-2.448,6.927c-1.632,1.702-3.844,2.553-6.634,2.553
	c-1.577,0-3.08-0.352-4.51-1.057c-1.43-0.704-2.557-1.643-3.38-2.814l1.402-1.506c1.771,2.176,3.878,3.264,6.32,3.264
	c2.093,0,3.725-0.617,4.897-1.852s1.779-2.947,1.82-5.138v-2.847c-1.604,2.232-3.941,3.349-7.01,3.349
	c-2.623,0-4.729-1.046-6.32-3.139c-1.591-2.093-2.386-4.918-2.386-8.476V22.424z M35.647,22.864c0,2.888,0.579,5.165,1.737,6.833
	c1.158,1.667,2.79,2.5,4.897,2.5c3.083,0,5.267-1.381,6.55-4.143V17.528c-0.586-1.451-1.43-2.557-2.532-3.317
	c-1.102-0.76-2.427-1.141-3.976-1.141c-2.106,0-3.746,0.827-4.917,2.48C36.233,17.203,35.647,19.641,35.647,22.864z"/>
<path fill="#CDCED3" d="M60.382,15.142c0.823-1.354,1.876-2.4,3.16-3.139c1.283-0.74,2.686-1.109,4.206-1.109
	c2.428,0,4.234,0.684,5.42,2.051c1.186,1.367,1.786,3.418,1.8,6.152v14.857h-2.49V19.076c-0.014-2.022-0.443-3.529-1.287-4.52
	c-0.844-0.99-2.194-1.486-4.049-1.486c-1.548,0-2.919,0.485-4.112,1.455c-1.193,0.969-2.075,2.277-2.647,3.924v15.506h-2.49V1.812
	h2.49V15.142z"/>
<path fill="#CDCED3" d="M85.306,5.515v5.797h4.688v2.051h-4.688v15.105c0,1.258,0.228,2.193,0.681,2.808s1.21,0.921,2.27,0.921
	c0.419,0,1.096-0.069,2.03-0.209l0.104,2.033c-0.655,0.234-1.549,0.353-2.678,0.353c-1.717,0-2.965-0.499-3.746-1.496
	c-0.782-0.997-1.172-2.466-1.172-4.405V13.363H78.63v-2.051h4.165V5.515H85.306z"/>
<path fill="#CDCED3" d="M108.786,31.779h15.047v2.176h-17.641V3.486h2.594V31.779z"/>
<path fill="#CDCED3" d="M171.212,22.55l-2.866,2.762v8.643h-2.512V1.812h2.512v20.57l2.364-2.553l8.663-8.518h3.16l-9.605,9.543
	l10.443,13.1h-2.993L171.212,22.55z"/>
<path fill="#CDCED3" d="M201.389,31.088c-1.507,2.19-3.913,3.285-7.22,3.285c-2.413,0-4.248-0.7-5.504-2.103
	c-1.255-1.402-1.897-3.478-1.925-6.227V11.312h2.49v14.419c0,4.312,1.744,6.466,5.231,6.466c3.628,0,5.923-1.499,6.885-4.498V11.312
	h2.511v22.643h-2.427L201.389,31.088z"/>
<path fill="#CDCED3" d="M228.573,22.864c0,3.53-0.781,6.331-2.344,8.402s-3.655,3.107-6.277,3.107c-3.098,0-5.469-1.088-7.115-3.265
	v11.552h-2.49V11.312h2.322l0.126,3.202c1.632-2.413,3.997-3.62,7.095-3.62c2.706,0,4.83,1.025,6.372,3.076
	c1.541,2.051,2.312,4.896,2.312,8.538V22.864z M226.062,22.424c0-2.888-0.593-5.169-1.778-6.843c-1.187-1.674-2.84-2.512-4.96-2.512
	c-1.534,0-2.853,0.37-3.956,1.109c-1.102,0.74-1.945,1.814-2.531,3.223v10.861c0.6,1.297,1.457,2.288,2.574,2.972
	c1.115,0.684,2.434,1.025,3.955,1.025c2.106,0,3.749-0.841,4.928-2.522C225.472,28.057,226.062,25.619,226.062,22.424z"/>
<line fill="none" stroke="#CDCED3" stroke-width="4" stroke-miterlimit="10" x1="131.557" y1="33.353" x2="126.077" y2="44.329"/>
<g>
	<path fill="#FFFFFF" d="M150.756,10.894c-2.781,0-5.332,0.972-7.344,2.588c2.863,2.039,4.739,5.377,4.739,9.152
		c0,3.774-1.876,7.112-4.739,9.152c2.012,1.615,4.563,2.587,7.344,2.587c6.483,0,11.739-5.256,11.739-11.739
		C162.496,16.15,157.24,10.894,150.756,10.894z"/>
	<path fill="#FFFFFF" d="M146.152,22.634c0-3.239-1.679-6.09-4.208-7.739c-1.817,2.066-2.928,4.771-2.928,7.739
		s1.11,5.672,2.928,7.739C144.473,28.723,146.152,25.874,146.152,22.634z"/>
</g>
<circle fill="none" stroke="#CDCED3" stroke-width="2" stroke-miterlimit="10" cx="136.912" cy="22.634" r="11.74"/>
</svg>
