<?xml version="1.0" encoding="utf-8"?>
<!-- Generator: Adobe Illustrator 16.0.0, SVG Export Plug-In . SVG Version: 6.00 Build 0)  -->
<!DOCTYPE svg PUBLIC "-//W3C//DTD SVG 1.1//EN" "http://www.w3.org/Graphics/SVG/1.1/DTD/svg11.dtd">
<svg version="1.1" xmlns="http://www.w3.org/2000/svg" x="0px" y="0px" width="205px"
	 height="38px" viewBox="0 0 235 45.25" enable-background="new 0 0 235 45.25">
<g id="Layer_2">
</g>
<g id="Layer_1">
	<circle fill="#FFFFFF" cx="155.421" cy="22.076" r="11.74"/>
	<path d="M4.78,31.221h15.046v2.176H2.185V2.928H4.78V31.221z"/>
	<path d="M24.033,4.214c0-0.472,0.153-0.87,0.46-1.195C24.8,2.693,25.219,2.53,25.749,2.53c0.53,0,0.952,0.163,1.266,0.489
		c0.314,0.325,0.471,0.724,0.471,1.195c0,0.472-0.157,0.867-0.471,1.185c-0.314,0.319-0.736,0.479-1.266,0.479
		c-0.53,0-0.949-0.16-1.255-0.479C24.186,5.081,24.033,4.687,24.033,4.214z M26.983,33.397h-2.511V10.754h2.511V33.397z"/>
	<path d="M32.78,21.866c0-3.543,0.785-6.351,2.354-8.423c1.57-2.072,3.701-3.108,6.393-3.108c3.083,0,5.427,1.228,7.032,3.684
		l0.125-3.265h2.344v22.182c0,2.916-0.816,5.225-2.448,6.927c-1.632,1.702-3.844,2.553-6.634,2.553c-1.577,0-3.08-0.352-4.51-1.057
		c-1.43-0.705-2.557-1.643-3.38-2.815l1.402-1.506c1.771,2.176,3.878,3.264,6.32,3.264c2.093,0,3.725-0.617,4.897-1.852
		c1.172-1.235,1.779-2.947,1.82-5.138v-2.846c-1.604,2.232-3.941,3.348-7.01,3.348c-2.623,0-4.729-1.046-6.32-3.139
		c-1.591-2.093-2.386-4.918-2.386-8.476V21.866z M35.313,22.306c0,2.888,0.579,5.166,1.737,6.833c1.158,1.667,2.79,2.5,4.897,2.5
		c3.083,0,5.267-1.381,6.55-4.144V16.97c-0.586-1.451-1.43-2.557-2.532-3.317c-1.102-0.761-2.427-1.141-3.976-1.141
		c-2.106,0-3.746,0.827-4.917,2.479C35.898,16.645,35.313,19.083,35.313,22.306z"/>
	<path d="M60.048,14.584c0.823-1.354,1.876-2.4,3.16-3.139c1.283-0.739,2.686-1.109,4.206-1.109c2.428,0,4.234,0.684,5.42,2.051
		c1.186,1.367,1.786,3.418,1.8,6.152v14.858h-2.49V18.518c-0.014-2.023-0.443-3.53-1.287-4.52c-0.844-0.991-2.194-1.486-4.049-1.486
		c-1.548,0-2.919,0.485-4.112,1.454c-1.193,0.97-2.075,2.278-2.647,3.924v15.507h-2.49V1.253h2.49V14.584z"/>
	<path d="M84.972,4.958v5.797h4.688v2.051h-4.688V27.91c0,1.257,0.227,2.193,0.68,2.808c0.454,0.615,1.21,0.921,2.271,0.921
		c0.418,0,1.095-0.07,2.03-0.209l0.105,2.033c-0.656,0.234-1.549,0.352-2.679,0.352c-1.716,0-2.965-0.499-3.746-1.496
		s-1.172-2.466-1.172-4.405V12.805h-4.165v-2.051h4.165V4.958H84.972z"/>
	<path d="M108.452,31.221h15.046v2.176h-17.641V2.928h2.595V31.221z"/>
	<path d="M175.878,21.992l-2.867,2.762v8.643H170.5V1.253h2.511v20.571l2.365-2.553l8.664-8.517h3.16l-9.605,9.542l10.442,13.1
		h-2.993L175.878,21.992z"/>
	<path d="M206.055,30.53c-1.507,2.19-3.913,3.285-7.22,3.285c-2.414,0-4.248-0.701-5.504-2.103
		c-1.255-1.402-1.897-3.477-1.925-6.226V10.754h2.49v14.418c0,4.311,1.744,6.466,5.232,6.466c3.627,0,5.922-1.5,6.885-4.499V10.754
		h2.511v22.643h-2.427L206.055,30.53z"/>
	<path d="M233.238,22.306c0,3.53-0.781,6.331-2.344,8.402s-3.655,3.107-6.278,3.107c-3.097,0-5.469-1.088-7.115-3.264v11.551h-2.491
		V10.754h2.323l0.125,3.202c1.632-2.414,3.997-3.621,7.094-3.621c2.707,0,4.831,1.026,6.373,3.077
		c1.541,2.051,2.312,4.896,2.312,8.538V22.306z M230.728,21.866c0-2.888-0.593-5.169-1.778-6.843
		c-1.187-1.674-2.84-2.511-4.96-2.511c-1.535,0-2.853,0.37-3.956,1.109c-1.102,0.74-1.946,1.814-2.532,3.223v10.861
		c0.6,1.297,1.458,2.288,2.574,2.972s2.435,1.025,3.955,1.025c2.107,0,3.75-0.841,4.928-2.522S230.728,25.061,230.728,21.866z"/>
	<line fill="none" stroke="#000000" stroke-width="3" stroke-miterlimit="10" x1="131.223" y1="32.795" x2="125.742" y2="43.771"/>
	<circle fill="none" stroke="#000000" stroke-width="1.2" stroke-miterlimit="10" cx="136.577" cy="22.076" r="11.74"/>
</g>
</svg>
