<?xml version="1.0" standalone="no"?>
<!DOCTYPE svg PUBLIC "-//W3C//DTD SVG 20010904//EN"
 "http://www.w3.org/TR/2001/REC-SVG-20010904/DTD/svg10.dtd">
<svg version="1.0" xmlns="http://www.w3.org/2000/svg"
 width="260.000000pt" height="260.000000pt" viewBox="0 0 260.000000 260.000000"
 preserveAspectRatio="xMidYMid meet">
<metadata>
Created by potrace 1.14, written by Peter Selinger 2001-2017
</metadata>
<g transform="translate(0.000000,260.000000) scale(0.100000,-0.100000)"
fill="#000000" stroke="none">
<path d="M860 2362 c-129 -10 -297 -72 -402 -150 -123 -90 -226 -237 -278
-392 -31 -94 -38 -268 -16 -380 32 -155 119 -307 238 -414 l63 -56 -153 -305
c-83 -168 -152 -309 -152 -314 0 -11 207 -118 213 -111 2 3 73 144 157 313
148 297 155 308 179 302 108 -27 259 -31 363 -10 88 19 182 57 253 104 l59 39
56 -28 c95 -48 156 -62 287 -66 84 -2 137 1 168 10 25 8 45 12 45 11 0 -2 31
9 70 25 373 154 544 579 379 947 -90 202 -278 354 -493 400 -147 31 -343 7
-461 -57 -51 -28 -51 -28 -76 -9 -111 89 -340 154 -499 141z m255 -156 c192
-65 347 -220 409 -408 53 -160 41 -328 -34 -483 -82 -169 -219 -282 -410 -341
-67 -20 -205 -26 -280 -12 -298 54 -528 327 -528 627 0 300 184 542 478 627
108 32 254 28 365 -10z"/>
<path d="M1175 2013 c-48 -67 -93 -161 -115 -246 -26 -100 -21 -284 10 -377
28 -82 63 -152 107 -212 40 -55 45 -54 119 14 153 141 213 376 146 574 -15 44
-42 103 -61 132 -31 49 -145 162 -163 162 -4 0 -24 -21 -43 -47z"/>
</g>
</svg>
