<?xml version="1.0" encoding="utf-8"?>
<!-- Generator: Adobe Illustrator 16.0.0, SVG Export Plug-In . SVG Version: 6.00 Build 0)  -->
<!DOCTYPE svg PUBLIC "-//W3C//DTD SVG 1.1//EN" "http://www.w3.org/Graphics/SVG/1.1/DTD/svg11.dtd">
<svg version="1.1" id="Layer_2_1_" xmlns="http://www.w3.org/2000/svg" xmlns:xlink="http://www.w3.org/1999/xlink" x="0px" y="0px"
	 width="100px" height="100px" viewBox="0 0 100 100" enableBackground="new 0 0 100 100" xml:space="preserve">
<line fill="none" stroke="#3D6FC1" stroke-width="2" stroke-miterlimit="10" x1="-4.712" y1="0.071" x2="104.713" y2="99.928"/>
<line fill="none" stroke="#3D6FC1" stroke-width="2" stroke-miterlimit="10" x1="-15.165" y1="14.791" x2="115.167" y2="85.208"/>
<line fill="none" stroke="#3D6FC1" stroke-width="2" stroke-miterlimit="10" x1="-21.835" y1="31.947" x2="121.837" y2="68.05"/>
<line fill="none" stroke="#3D6FC1" stroke-width="2" stroke-miterlimit="10" x1="-23.454" y1="40.48" x2="123.455" y2="59.514"/>
<line fill="none" stroke="#3D6FC1" stroke-width="2" stroke-miterlimit="10" x1="1.033" y1="105.569" x2="98.965" y2="-5.581"/>
<line fill="none" stroke="#3D6FC1" stroke-width="2" stroke-miterlimit="10" x1="15.931" y1="115.765" x2="84.063" y2="-15.776"/>
<line fill="none" stroke="#3D6FC1" stroke-width="2" stroke-miterlimit="10" x1="50.794" y1="124.061" x2="49.196" y2="-24.07"/>
<line fill="none" stroke="#3D6FC1" stroke-width="2" stroke-miterlimit="10" x1="120.97" y1="28.814" x2="-20.981" y2="71.182"/>
<line fill="none" stroke="#3D6FC1" stroke-width="2" stroke-miterlimit="10" x1="76.999" y1="-18.975" x2="22.991" y2="118.97"/>
<line fill="none" stroke="#3D6FC1" stroke-width="2" stroke-miterlimit="10" x1="12.27" y1="-13.747" x2="87.719" y2="113.74"/>
<line fill="none" stroke="#3D6FC1" stroke-width="2" stroke-miterlimit="10" x1="-11.856" y1="9.242" x2="111.844" y2="90.752"/>
<line fill="none" stroke="#3D6FC1" stroke-width="2" stroke-miterlimit="10" x1="-23.462" y1="40.48" x2="123.449" y2="59.514"/>
<line fill="none" stroke="#3D6FC1" stroke-width="2" stroke-miterlimit="10" x1="7.917" y1="-10.956" x2="92.072" y2="110.952"/>
<line fill="none" stroke="#3D6FC1" stroke-width="2" stroke-miterlimit="10" x1="-13.965" y1="87.348" x2="113.955" y2="12.647"/>
<line fill="none" stroke="#3D6FC1" stroke-width="2" stroke-miterlimit="10" x1="1.029" y1="105.569" x2="98.96" y2="-5.578"/>
<line fill="none" stroke="#3D6FC1" stroke-width="2" stroke-miterlimit="10" x1="63.643" y1="122.796" x2="36.347" y2="-22.804"/>
<line fill="none" stroke="#3D6FC1" stroke-width="2" stroke-miterlimit="10" x1="124.04" y1="51.784" x2="-24.053" y2="48.21"/>
<line fill="none" stroke="#3D6FC1" stroke-width="2" stroke-miterlimit="10" x1="117.329" y1="19.143" x2="-17.342" y2="80.851"/>
<line fill="none" stroke="#3D6FC1" stroke-width="2" stroke-miterlimit="10" x1="67.137" y1="-22.06" x2="32.852" y2="122.054"/>
<line fill="none" stroke="#3D6FC1" stroke-width="2" stroke-miterlimit="10" x1="5.025" y1="108.852" x2="94.96" y2="-8.856"/>
<line fill="none" stroke="#3D6FC1" stroke-width="2" stroke-miterlimit="10" x1="98.214" y1="106.22" x2="1.774" y2="-6.223"/>
<line fill="none" stroke="#3D6FC1" stroke-width="2" stroke-miterlimit="10" x1="-23.211" y1="61.27" x2="123.198" y2="38.723"/>
<line fill="none" stroke="#3D6FC1" stroke-width="2" stroke-miterlimit="10" x1="23.912" y1="-19.325" x2="76.078" y2="119.318"/>
<line fill="none" stroke="#3D6FC1" stroke-width="2" stroke-miterlimit="10" x1="109.166" y1="5.446" x2="-9.176" y2="94.548"/>
<line fill="none" stroke="#3D6FC1" stroke-width="2" stroke-miterlimit="10" x1="105.57" y1="98.96" x2="-5.583" y2="1.033"/>
<line fill="none" stroke="#3D6FC1" stroke-width="2" stroke-miterlimit="10" x1="115.159" y1="85.207" x2="-15.173" y2="14.79"/>
<line fill="none" stroke="#3D6FC1" stroke-width="2" stroke-miterlimit="10" x1="-23.931" y1="54.674" x2="123.912" y2="45.323"/>
<line fill="none" stroke="#3D6FC1" stroke-width="2" stroke-miterlimit="10" x1="119.429" y1="75.793" x2="-19.438" y2="24.204"/>
</svg>
