<?xml version="1.0" encoding="utf-8"?>
<!-- Generator: Adobe Illustrator 16.0.0, SVG Export Plug-In . SVG Version: 6.00 Build 0)  -->
<!DOCTYPE svg PUBLIC "-//W3C//DTD SVG 1.1//EN" "http://www.w3.org/Graphics/SVG/1.1/DTD/svg11.dtd">
<svg version="1.1" id="Layer_2_1_" xmlns="http://www.w3.org/2000/svg" xmlns:xlink="http://www.w3.org/1999/xlink" x="0px" y="0px"
	 width="100px" height="100px" viewBox="0 0 100 100" enableBackground="new 0 0 100 100" xml:space="preserve">
<line fill="none" stroke="#3D6FC1" stroke-width="2" stroke-miterlimit="10" x1="-2.375" y1="-2.375" x2="102.375" y2="102.375"/>
<line fill="none" stroke="#3D6FC1" stroke-width="2" stroke-miterlimit="10" x1="-8.367" y1="4.398" x2="108.367" y2="95.602"/>
<line fill="none" stroke="#3D6FC1" stroke-width="2" stroke-miterlimit="10" x1="-13.489" y1="11.851" x2="113.49" y2="88.148"/>
<line fill="none" stroke="#3D6FC1" stroke-width="2" stroke-miterlimit="10" x1="-17.665" y1="19.872" x2="117.666" y2="80.126"/>
<line fill="none" stroke="#3D6FC1" stroke-width="2" stroke-miterlimit="10" x1="-22.943" y1="37.136" x2="122.943" y2="62.859"/>
<line fill="none" stroke="#3D6FC1" stroke-width="2" stroke-miterlimit="10" x1="-20.443" y1="72.885" x2="120.443" y2="27.107"/>
<line fill="none" stroke="#3D6FC1" stroke-width="2" stroke-miterlimit="10" x1="-12.814" y1="89.246" x2="112.814" y2="10.745"/>
<line fill="none" stroke="#3D6FC1" stroke-width="2" stroke-miterlimit="10" x1="-1.454" y1="103.275" x2="101.452" y2="-3.286"/>
<line fill="none" stroke="#3D6FC1" stroke-width="2" stroke-miterlimit="10" x1="12.963" y1="114.141" x2="87.032" y2="-14.151"/>
<line fill="none" stroke="#3D6FC1" stroke-width="2" stroke-miterlimit="10" x1="47.41" y1="124.02" x2="52.58" y2="-24.029"/>
<line fill="none" stroke="#3D6FC1" stroke-width="2" stroke-miterlimit="10" x1="56.45" y1="123.783" x2="43.539" y2="-23.792"/>
<line fill="none" stroke="#3D6FC1" stroke-width="2" stroke-miterlimit="10" x1="82.464" y1="116.57" x2="17.523" y2="-16.576"/>
<line fill="none" stroke="#3D6FC1" stroke-width="2" stroke-miterlimit="10" x1="108.361" y1="95.6" x2="-8.375" y2="4.396"/>
<line fill="none" stroke="#3D6FC1" stroke-width="2" stroke-miterlimit="10" x1="122.445" y1="65.396" x2="-22.458" y2="34.599"/>
<line fill="none" stroke="#3D6FC1" stroke-width="2" stroke-miterlimit="10" x1="121.863" y1="32.078" x2="-21.875" y2="67.918"/>
<line fill="none" stroke="#3D6FC1" stroke-width="2" stroke-miterlimit="10" x1="106.734" y1="2.386" x2="-6.746" y2="97.609"/>
<line fill="none" stroke="#3D6FC1" stroke-width="2" stroke-miterlimit="10" x1="80.121" y1="-17.669" x2="19.869" y2="117.664"/>
<line fill="none" stroke="#3D6FC1" stroke-width="2" stroke-miterlimit="10" x1="47.409" y1="-24.028" x2="52.58" y2="124.021"/>
<line fill="none" stroke="#3D6FC1" stroke-width="2" stroke-miterlimit="10" x1="15.22" y1="-15.403" x2="84.768" y2="115.396"/>
<line fill="none" stroke="#3D6FC1" stroke-width="2" stroke-miterlimit="10" x1="-9.93" y1="6.46" x2="109.918" y2="93.534"/>
<line fill="none" stroke="#3D6FC1" stroke-width="2" stroke-miterlimit="10" x1="-22.951" y1="37.135" x2="122.938" y2="62.859"/>
<line fill="none" stroke="#3D6FC1" stroke-width="2" stroke-miterlimit="10" x1="-5.05" y1="99.561" x2="105.037" y2="0.436"/>
<line fill="none" stroke="#3D6FC1" stroke-width="2" stroke-miterlimit="10" x1="22.248" y1="118.673" x2="77.74" y2="-18.678"/>
<line fill="none" stroke="#3D6FC1" stroke-width="2" stroke-miterlimit="10" x1="55.16" y1="123.886" x2="44.827" y2="-23.891"/>
<line fill="none" stroke="#3D6FC1" stroke-width="2" stroke-miterlimit="10" x1="120.436" y1="27.11" x2="-20.449" y2="72.887"/>
<line fill="none" stroke="#3D6FC1" stroke-width="2" stroke-miterlimit="10" x1="75.326" y1="-19.603" x2="24.663" y2="119.6"/>
<line fill="none" stroke="#3D6FC1" stroke-width="2" stroke-miterlimit="10" x1="42.251" y1="-23.664" x2="57.736" y2="123.659"/>
<line fill="none" stroke="#3D6FC1" stroke-width="2" stroke-miterlimit="10" x1="10.745" y1="-12.814" x2="89.244" y2="112.811"/>
<line fill="none" stroke="#3D6FC1" stroke-width="2" stroke-miterlimit="10" x1="-12.818" y1="10.748" x2="112.807" y2="89.247"/>
<line fill="none" stroke="#3D6FC1" stroke-width="2" stroke-miterlimit="10" x1="-23.667" y1="42.255" x2="123.656" y2="57.739"/>
<line fill="none" stroke="#3D6FC1" stroke-width="2" stroke-miterlimit="10" x1="-1.458" y1="103.275" x2="101.447" y2="-3.283"/>
<line fill="none" stroke="#3D6FC1" stroke-width="2" stroke-miterlimit="10" x1="60.303" y1="123.344" x2="39.686" y2="-23.351"/>
<line fill="none" stroke="#3D6FC1" stroke-width="2" stroke-miterlimit="10" x1="123.881" y1="55.164" x2="-23.894" y2="44.83"/>
<line fill="none" stroke="#3D6FC1" stroke-width="2" stroke-miterlimit="10" x1="118.668" y1="22.251" x2="-18.681" y2="77.743"/>
<line fill="none" stroke="#3D6FC1" stroke-width="2" stroke-miterlimit="10" x1="99.555" y1="-5.046" x2="0.432" y2="105.04"/>
<line fill="none" stroke="#3D6FC1" stroke-width="2" stroke-miterlimit="10" x1="70.41" y1="-21.201" x2="29.578" y2="121.195"/>
<line fill="none" stroke="#3D6FC1" stroke-width="2" stroke-miterlimit="10" x1="6.458" y1="-9.925" x2="93.529" y2="109.919"/>
<line fill="none" stroke="#3D6FC1" stroke-width="2" stroke-miterlimit="10" x1="-15.404" y1="15.225" x2="115.391" y2="84.77"/>
<line fill="none" stroke="#3D6FC1" stroke-width="2" stroke-miterlimit="10" x1="2.384" y1="106.736" x2="97.602" y2="-6.741"/>
<line fill="none" stroke="#3D6FC1" stroke-width="2" stroke-miterlimit="10" x1="95.596" y1="108.363" x2="4.392" y2="-8.366"/>
<line fill="none" stroke="#3D6FC1" stroke-width="2" stroke-miterlimit="10" x1="116.566" y1="17.526" x2="-16.576" y2="82.469"/>
<line fill="none" stroke="#3D6FC1" stroke-width="2" stroke-miterlimit="10" x1="32.073" y1="-21.871" x2="67.916" y2="121.864"/>
<line fill="none" stroke="#3D6FC1" stroke-width="2" stroke-miterlimit="10" x1="-17.672" y1="19.873" x2="117.658" y2="80.121"/>
<line fill="none" stroke="#3D6FC1" stroke-width="2" stroke-miterlimit="10" x1="-15.404" y1="84.773" x2="115.391" y2="15.223"/>
<line fill="none" stroke="#3D6FC1" stroke-width="2" stroke-miterlimit="10" x1="6.459" y1="109.922" x2="93.527" y2="-9.926"/>
<line fill="none" stroke="#3D6FC1" stroke-width="2" stroke-miterlimit="10" x1="123.881" y1="44.829" x2="-23.893" y2="55.167"/>
<line fill="none" stroke="#3D6FC1" stroke-width="2" stroke-miterlimit="10" x1="91.41" y1="-11.408" x2="8.579" y2="111.404"/>
<line fill="none" stroke="#3D6FC1" stroke-width="2" stroke-miterlimit="10" x1="27.105" y1="-20.444" x2="72.885" y2="120.438"/>
<line fill="none" stroke="#3D6FC1" stroke-width="2" stroke-miterlimit="10" x1="-1.458" y1="-3.281" x2="101.447" y2="103.275"/>
<line fill="none" stroke="#3D6FC1" stroke-width="2" stroke-miterlimit="10" x1="-19.607" y1="24.666" x2="119.596" y2="75.328"/>
<line fill="none" stroke="#3D6FC1" stroke-width="2" stroke-miterlimit="10" x1="10.746" y1="112.811" x2="89.242" y2="-12.817"/>
<line fill="none" stroke="#3D6FC1" stroke-width="2" stroke-miterlimit="10" x1="75.328" y1="119.598" x2="24.66" y2="-19.604"/>
<line fill="none" stroke="#3D6FC1" stroke-width="2" stroke-miterlimit="10" x1="103.275" y1="101.447" x2="-3.288" y2="-1.454"/>
<line fill="none" stroke="#3D6FC1" stroke-width="2" stroke-miterlimit="10" x1="120.438" y1="72.883" x2="-20.45" y2="27.11"/>
<line fill="none" stroke="#3D6FC1" stroke-width="2" stroke-miterlimit="10" x1="123.34" y1="39.687" x2="-23.353" y2="60.307"/>
<line fill="none" stroke="#3D6FC1" stroke-width="2" stroke-miterlimit="10" x1="111.396" y1="8.577" x2="-11.411" y2="91.416"/>
<line fill="none" stroke="#3D6FC1" stroke-width="2" stroke-miterlimit="10" x1="87.025" y1="-14.148" x2="12.96" y2="114.143"/>
<line fill="none" stroke="#3D6FC1" stroke-width="2" stroke-miterlimit="10" x1="60.432" y1="-23.331" x2="39.556" y2="123.326"/>
<line fill="none" stroke="#3D6FC1" stroke-width="2" stroke-miterlimit="10" x1="22.246" y1="-18.676" x2="77.742" y2="118.672"/>
<line fill="none" stroke="#3D6FC1" stroke-width="2" stroke-miterlimit="10" x1="-5.05" y1="0.438" x2="105.039" y2="99.559"/>
<line fill="none" stroke="#3D6FC1" stroke-width="2" stroke-miterlimit="10" x1="-21.205" y1="29.584" x2="121.193" y2="70.412"/>
<line fill="none" stroke="#3D6FC1" stroke-width="2" stroke-miterlimit="10" x1="-22.948" y1="62.861" x2="122.938" y2="37.134"/>
<line fill="none" stroke="#3D6FC1" stroke-width="2" stroke-miterlimit="10" x1="47.413" y1="124.02" x2="52.578" y2="-24.026"/>
<line fill="none" stroke="#3D6FC1" stroke-width="2" stroke-miterlimit="10" x1="113.482" y1="88.146" x2="-13.497" y2="11.85"/>
<line fill="none" stroke="#3D6FC1" stroke-width="2" stroke-miterlimit="10" x1="123.779" y1="56.452" x2="-23.795" y2="43.542"/>
<line fill="none" stroke="#3D6FC1" stroke-width="2" stroke-miterlimit="10" x1="71.646" y1="-20.836" x2="28.337" y2="120.831"/>
<line fill="none" stroke="#3D6FC1" stroke-width="2" stroke-miterlimit="10" x1="38.403" y1="-23.159" x2="61.58" y2="123.154"/>
<line fill="none" stroke="#3D6FC1" stroke-width="2" stroke-miterlimit="10" x1="-18.188" y1="78.943" x2="118.174" y2="21.057"/>
<line fill="none" stroke="#3D6FC1" stroke-width="2" stroke-miterlimit="10" x1="1.4" y1="105.902" x2="98.586" y2="-5.903"/>
<line fill="none" stroke="#3D6FC1" stroke-width="2" stroke-miterlimit="10" x1="35.201" y1="122.577" x2="64.786" y2="-22.578"/>
<line fill="none" stroke="#3D6FC1" stroke-width="2" stroke-miterlimit="10" x1="94.572" y1="109.15" x2="5.417" y2="-9.155"/>
<line fill="none" stroke="#3D6FC1" stroke-width="2" stroke-miterlimit="10" x1="115.992" y1="83.622" x2="-16.003" y2="16.372"/>
<line fill="none" stroke="#3D6FC1" stroke-width="2" stroke-miterlimit="10" x1="124.053" y1="51.287" x2="-24.064" y2="48.706"/>
<line fill="none" stroke="#3D6FC1" stroke-width="2" stroke-miterlimit="10" x1="33.327" y1="-22.175" x2="66.654" y2="122.167"/>
<line fill="none" stroke="#3D6FC1" stroke-width="2" stroke-miterlimit="10" x1="-24.068" y1="51.293" x2="124.049" y2="48.704"/>
<line fill="none" stroke="#3D6FC1" stroke-width="2" stroke-miterlimit="10" x1="5.417" y1="109.156" x2="94.566" y2="-9.156"/>
<line fill="none" stroke="#3D6FC1" stroke-width="2" stroke-miterlimit="10" x1="98.59" y1="105.898" x2="1.398" y2="-5.899"/>
<line fill="none" stroke="#3D6FC1" stroke-width="2" stroke-miterlimit="10" x1="118.178" y1="78.938" x2="-18.188" y2="21.06"/>
</svg>
